<?xml version="1.0" standalone="no"?>
<!DOCTYPE svg PUBLIC "-//W3C//DTD SVG 20010904//EN"
 "http://www.w3.org/TR/2001/REC-SVG-20010904/DTD/svg10.dtd">
<svg version="1.0" xmlns="http://www.w3.org/2000/svg"
 width="1536.000000pt" height="1024.000000pt" viewBox="0 0 1536.000000 1024.000000"
 preserveAspectRatio="xMidYMid meet">

<g transform="translate(0.000000,1024.000000) scale(0.100000,-0.100000)"
fill="#000000" stroke="none">
<path d="M6115 8736 c-301 -50 -517 -204 -653 -465 -30 -56 -59 -102 -65 -102
-85 -8 -262 -47 -367 -80 -117 -37 -239 -95 -305 -146 -57 -44 -68 -70 -33
-77 289 -55 425 -81 488 -91 64 -10 201 -45 221 -56 22 -11 107 -121 140 -179
31 -54 62 -141 85 -234 21 -87 15 -143 -30 -304 -62 -218 -76 -299 -76 -444 0
-146 8 -206 51 -386 34 -140 87 -289 149 -412 42 -84 108 -200 120 -210 3 -3
28 -39 55 -80 66 -101 241 -315 216 -264 -5 11 -17 26 -25 34 -21 16 -75 107
-125 206 -44 87 -56 82 -16 -6 24 -53 24 -54 3 -25 -89 115 -147 224 -192 358
-40 119 -43 139 -22 156 12 10 17 8 26 -9 6 -12 19 -20 28 -18 18 4 44 -18 57
-48 7 -17 8 -17 12 -1 6 24 30 21 57 -8 22 -24 43 -35 32 -16 -4 5 -3 17 1 27
6 16 7 16 18 0 11 -14 14 -14 25 -1 7 8 16 13 20 10 5 -3 18 7 29 21 l21 27 0
-29 c1 -16 7 -40 15 -54 14 -24 14 -24 15 -3 0 12 5 25 10 28 6 3 10 -1 10 -9
0 -9 5 -16 10 -16 6 0 10 4 10 8 0 4 13 23 30 42 l29 35 -5 -35 -6 -35 26 28
c14 15 30 27 36 27 5 0 10 9 10 21 0 11 9 32 19 45 l20 25 3 -23 c3 -18 11 -9
38 46 22 44 36 63 38 52 4 -16 5 -16 18 1 22 28 54 103 54 127 0 17 2 18 10 6
6 -10 13 3 26 49 13 47 20 59 25 45 7 -18 8 -18 9 1 1 11 3 25 5 30 1 6 3 17
4 25 1 12 3 12 10 2 6 -10 11 -2 16 24 3 21 15 54 25 74 9 19 20 62 24 95 4
33 13 80 21 105 8 25 19 74 24 109 6 34 22 86 37 115 14 28 31 61 38 73 6 13
14 23 17 23 3 0 13 -53 23 -117 23 -154 48 -238 102 -346 125 -249 295 -434
543 -590 119 -75 428 -224 573 -277 87 -32 131 -40 61 -12 -23 9 -45 21 -50
26 -4 5 -3 6 4 2 7 -3 61 -20 120 -35 130 -35 317 -99 393 -135 51 -24 52 -25
19 -20 -22 3 -39 1 -43 -5 -4 -6 -1 -9 7 -6 7 3 22 -4 33 -16 19 -22 19 -22
-3 -17 -28 7 -29 -3 -4 -26 19 -17 34 -87 24 -112 -3 -8 -14 -14 -24 -14 -23
0 -23 -4 -3 -35 9 -14 12 -25 7 -25 -6 0 -8 -11 -5 -25 3 -20 0 -25 -16 -25
-31 0 -35 -15 -12 -57 11 -21 16 -39 11 -41 -6 -2 -7 -10 -4 -19 4 -11 2 -14
-5 -9 -7 4 -12 1 -12 -8 0 -11 -9 -16 -30 -16 -30 0 -40 -13 -19 -26 8 -5 8
-8 0 -14 -8 -4 -9 -15 -3 -31 14 -38 4 -49 -46 -50 -41 0 -44 -2 -22 -10 14
-5 31 -18 37 -29 11 -17 10 -20 -20 -25 -17 -2 -50 -6 -72 -8 l-40 -2 45 -15
45 -15 -58 -3 c-33 -2 -55 -7 -52 -13 4 -5 -2 -9 -12 -10 -10 0 -3 -6 17 -14
34 -13 28 -19 -15 -16 -19 2 -19 1 -2 -13 18 -14 18 -14 0 -19 -15 -3 -14 -5
7 -14 22 -9 19 -10 -25 -15 -27 -4 -60 -2 -73 3 -14 5 -27 7 -30 4 -3 -2 6 -9
19 -14 23 -9 22 -10 -11 -12 -52 -4 -62 -3 -100 4 -32 6 -34 6 -16 -8 11 -8
31 -16 45 -16 14 -1 -5 -6 -43 -10 -42 -6 -72 -6 -75 0 -3 5 -37 9 -76 9 -38
0 -82 5 -97 11 -16 6 -28 8 -28 6 0 -8 44 -24 120 -47 l65 -18 -54 5 c-29 3
-83 17 -119 31 -36 13 -67 23 -68 21 -2 -2 20 -16 48 -30 67 -35 36 -35 -45
-1 -34 15 -82 28 -107 29 l-45 3 45 -23 c25 -13 59 -25 75 -25 17 -1 53 -10
80 -21 31 -12 39 -17 20 -14 -16 3 -46 8 -65 11 l-35 5 38 -15 c57 -21 58 -29
2 -23 -49 6 -49 6 -20 -8 30 -14 30 -14 5 -15 -14 0 -34 6 -45 14 -11 7 -45
17 -75 21 -52 7 -54 7 -40 -11 14 -16 13 -17 -5 -10 -11 5 -28 11 -38 13 -10
3 -16 11 -13 18 2 7 -8 18 -22 24 -25 11 -26 10 -8 -4 33 -25 1 -17 -81 21
-124 57 -145 66 -138 55 3 -6 12 -11 19 -11 8 0 20 -7 27 -16 12 -15 11 -16
-11 -9 -14 4 -59 23 -100 41 -68 31 -72 32 -45 9 40 -34 28 -31 -52 9 -38 18
-98 43 -135 55 -37 12 -77 30 -90 40 -13 10 -34 24 -48 31 -20 10 -17 4 15
-30 36 -38 37 -42 15 -35 -26 8 -44 22 -119 90 -24 22 -40 34 -36 26 5 -9 4
-12 -3 -7 -6 4 -9 12 -6 19 2 7 -5 18 -16 25 -20 12 -20 11 -10 -7 9 -17 2
-16 -49 12 -140 76 -193 111 -227 150 -19 23 -30 32 -24 19 10 -21 10 -23 -7
-14 -29 17 -108 102 -152 166 -49 70 -52 67 -11 -13 44 -89 181 -198 400 -321
84 -47 195 -124 301 -210 50 -40 95 -111 114 -179 8 -31 19 -63 24 -71 4 -8 4
-27 0 -43 -9 -35 -83 -138 -145 -202 -26 -27 -72 -76 -102 -108 -69 -75 -212
-207 -224 -207 -5 0 -29 -16 -52 -35 -24 -19 -47 -35 -51 -35 -4 0 -30 -16
-57 -36 l-50 -36 -82 7 c-99 8 -127 -1 -163 -54 -18 -26 -36 -40 -50 -41 -12
0 -25 -5 -29 -11 -16 -26 -495 15 -749 65 -38 8 -99 19 -135 26 -36 6 -121 33
-189 58 -113 43 -130 52 -185 107 -79 78 -86 88 -96 131 -11 47 1 77 48 122
86 84 123 178 125 312 2 139 -52 264 -171 397 -112 126 -153 168 -143 147 5
-11 51 -65 100 -120 50 -54 103 -124 118 -154 16 -30 30 -57 34 -60 8 -7 36
-90 45 -130 14 -69 -5 -208 -37 -272 -22 -42 -30 -49 -21 -16 3 14 1 19 -6 14
-13 -8 -8 45 8 75 20 36 3 32 -20 -5 -28 -46 -45 -46 -25 -1 8 20 10 33 5 30
-6 -3 -10 -2 -10 4 0 18 -30 0 -46 -28 l-15 -26 7 25 c4 14 9 32 11 40 3 9 -2
7 -11 -5 -48 -60 -50 -61 -54 -42 -2 10 14 59 36 110 55 129 60 157 10 60 -23
-46 -45 -83 -49 -83 -15 0 -26 63 -16 90 3 8 8 31 10 50 3 19 8 44 12 55 3 11
-1 8 -9 -7 -9 -15 -17 -43 -18 -62 -4 -53 -16 -44 -23 19 -6 41 -3 65 10 97
27 68 27 77 1 23 l-25 -50 -3 85 c-3 94 -5 168 -7 218 -1 17 -4 32 -9 32 -4 0
-6 -64 -5 -142 2 -113 0 -136 -8 -108 -6 19 -15 40 -21 45 -7 7 -9 4 -5 -10
30 -103 45 -169 50 -219 l6 -60 -18 30 c-10 16 -26 36 -37 44 -18 15 -18 14
-1 -13 26 -40 38 -77 26 -77 -5 0 -33 21 -61 48 -28 26 -46 38 -40 26 6 -11
35 -42 65 -67 55 -47 78 -87 51 -87 -12 0 -12 -4 2 -25 l16 -24 -31 9 c-33 9
-34 3 -4 -32 13 -15 13 -16 -7 -11 -20 5 -21 4 -11 -15 6 -12 24 -28 40 -37
27 -13 50 -45 33 -45 -4 0 -32 21 -62 47 -30 26 -49 40 -41 30 11 -14 11 -17
0 -17 -7 0 7 -15 31 -32 24 -18 60 -48 79 -66 28 -26 20 -22 -34 15 -38 27
-87 59 -107 72 -21 12 -38 27 -38 32 0 6 -11 25 -24 42 -30 40 -44 91 -52 188
-10 122 4 168 130 402 32 59 56 110 53 113 -5 5 -92 -153 -149 -269 -43 -87
-58 -173 -47 -265 12 -97 23 -131 66 -212 42 -78 69 -108 150 -166 58 -41 64
-49 78 -102 8 -31 20 -70 25 -86 20 -62 2 -61 -157 14 -241 112 -412 209 -478
272 -22 21 -65 50 -95 64 -30 15 -79 38 -108 52 -29 14 -91 55 -138 91 -48 36
-100 75 -116 85 -42 27 -88 131 -88 201 0 49 3 55 40 88 21 20 56 45 77 56 77
40 157 149 189 258 21 73 21 180 0 260 -9 35 -20 96 -25 135 l-8 73 -2 -57 c0
-31 9 -96 20 -145 40 -168 3 -335 -100 -443 -34 -36 -41 -39 -64 -31 -14 5
-28 7 -33 3 -4 -4 0 4 9 18 27 39 20 46 -15 14 -18 -16 -25 -20 -15 -8 9 11
17 25 17 30 0 5 14 22 32 37 l33 28 -32 -15 c-17 -9 -39 -26 -47 -38 l-16 -22
0 24 c0 13 12 37 27 52 15 15 22 28 16 28 -18 0 -73 -70 -80 -101 -3 -16 -9
-31 -13 -34 -12 -7 7 102 30 172 23 70 118 266 177 363 18 30 33 58 33 63 0
35 -60 -64 -173 -288 l-30 -60 -11 58 c-13 72 -26 66 -19 -8 3 -30 2 -62 -2
-72 -6 -16 -8 -15 -18 7 -9 23 -11 21 -20 -29 l-9 -54 -25 29 -25 29 21 -38
c11 -20 18 -44 15 -52 -4 -8 -1 -22 6 -30 7 -9 10 -18 7 -21 -3 -3 -15 5 -26
18 -64 75 -64 75 -37 26 32 -57 32 -59 1 -45 -27 13 -55 75 -55 123 0 41 41
142 81 201 64 92 81 107 225 192 40 23 80 51 90 63 11 11 -12 1 -51 -24 -38
-25 -92 -58 -120 -74 -80 -45 -147 -119 -196 -219 -43 -86 -44 -91 -44 -184 1
-94 2 -98 49 -195 40 -83 49 -114 56 -184 5 -47 14 -90 20 -96 5 -5 10 -14 10
-19 0 -10 -98 58 -150 104 -19 16 -103 82 -186 144 -146 111 -241 204 -249
244 -2 11 -8 29 -14 40 -24 44 -13 87 43 166 101 140 133 235 123 365 -13 164
-97 315 -245 442 -119 103 -177 151 -165 138 14 -15 18 -34 5 -26 -18 11 11
-184 55 -362 14 -57 23 -106 19 -109 -3 -4 -6 1 -6 10 0 10 -4 17 -9 17 -5 0
-21 20 -35 44 -15 25 -32 48 -38 52 -7 4 1 -15 17 -42 15 -27 32 -56 35 -64
49 -103 49 -105 36 -108 -15 -3 -26 -32 -26 -69 0 -31 -14 -36 -43 -13 -29 23
-45 26 -28 6 6 -8 10 -20 9 -27 -2 -7 2 -13 8 -14 12 0 55 -48 73 -82 12 -23
6 -29 -23 -24 -5 1 -1 -10 9 -25 l18 -28 -28 23 c-16 12 -39 37 -52 56 -27 39
-40 47 -21 13 7 -13 11 -26 11 -29 -1 -4 9 -17 22 -29 14 -13 25 -28 25 -34 0
-6 9 -17 21 -24 12 -7 19 -16 16 -18 -6 -6 -80 30 -121 59 -25 18 -29 18 -23
4 3 -9 2 -17 -2 -17 -10 0 -25 30 -22 43 1 5 -3 6 -9 2 -29 -18 105 -148 199
-192 35 -16 43 -26 61 -78 12 -33 30 -79 40 -102 l19 -41 -32 4 c-52 6 -75 12
-95 23 -10 5 -27 9 -38 9 -21 -2 -143 40 -158 54 -6 4 -18 8 -28 8 -10 0 -34
27 -62 69 -86 133 -168 203 -301 256 -170 67 -332 63 -565 -15 -91 -30 -244
-100 -220 -100 8 0 40 12 70 26 209 98 440 144 585 115 64 -13 217 -79 210
-91 -2 -4 7 -18 21 -31 26 -24 60 -79 48 -79 -3 0 -24 16 -47 35 -49 42 -63
45 -41 8 l16 -28 -19 25 c-40 55 -73 86 -112 108 -22 13 -41 20 -41 15 0 -5
16 -17 35 -27 32 -18 85 -78 130 -148 32 -52 -3 -28 -38 25 -19 28 -45 61 -58
72 -18 15 -20 15 -10 3 7 -10 10 -18 5 -18 -4 0 2 -10 13 -22 27 -30 46 -68
34 -68 -13 0 -111 102 -111 116 0 6 -9 19 -21 30 -20 18 -20 17 2 -21 13 -22
40 -64 61 -92 21 -29 36 -53 32 -53 -3 0 -42 9 -87 21 -61 15 -91 29 -116 52
l-34 32 22 -32 22 -33 -43 0 c-24 0 -52 7 -62 15 -23 17 -40 20 -31 5 10 -17
-77 0 -100 19 -25 21 -96 53 -102 47 -3 -2 8 -11 24 -20 63 -32 57 -41 -25
-38 -42 2 -95 -1 -117 -6 -33 -8 -20 -10 78 -11 128 -1 364 -33 437 -59 25 -9
59 -17 75 -19 40 -4 185 -51 162 -52 -9 -1 -26 -10 -37 -21 -21 -21 -11 -26
21 -10 12 7 19 7 19 1 0 -6 7 -8 15 -5 8 4 15 2 15 -4 0 -10 -52 -38 -150 -78
-30 -13 -50 -24 -45 -24 14 1 186 45 210 55 43 18 -4 -20 -57 -46 -132 -65
-121 -62 -213 -55 -128 11 -277 55 -361 109 -23 14 -67 50 -99 79 -81 75 -139
114 -190 129 -53 16 -58 29 -12 30 25 0 28 2 13 8 -26 10 -68 1 -63 -13 2 -6
37 -27 78 -47 45 -22 104 -63 149 -104 41 -37 95 -81 120 -97 118 -75 324
-124 485 -115 95 6 110 10 246 63 94 37 150 42 205 19 48 -20 91 -64 47 -48
-11 4 -15 2 -10 -3 5 -5 23 -9 40 -10 51 -2 148 -25 202 -49 49 -22 302 -193
413 -280 32 -24 95 -72 142 -107 88 -65 113 -100 66 -91 -15 3 -23 10 -19 16
4 7 0 8 -11 4 -29 -11 -88 10 -129 45 -20 18 -37 37 -37 41 0 16 -74 76 -120
98 -72 35 -139 49 -235 49 -143 0 -256 -37 -371 -121 -33 -24 -79 -53 -102
-63 -44 -20 -55 -36 -24 -36 17 0 49 -18 182 -98 63 -39 143 -74 250 -111 19
-6 69 -14 110 -18 117 -9 226 27 310 102 14 12 43 32 66 44 35 20 46 21 80 12
21 -6 66 -11 99 -11 48 0 73 -6 119 -30 88 -46 226 -144 226 -160 0 -4 -61 -9
-135 -12 -112 -4 -138 -8 -155 -23 -25 -22 -19 -32 37 -56 50 -21 113 -25 130
-8 7 7 49 12 100 12 71 1 98 -4 138 -22 27 -12 52 -25 55 -29 3 -4 15 -13 28
-20 13 -7 88 -51 167 -97 187 -110 285 -159 449 -226 64 -26 72 -40 29 -51
-289 -72 -444 -109 -513 -123 -102 -21 -166 -51 -208 -99 -27 -31 -41 -38
-124 -55 -182 -38 -240 -51 -249 -57 -5 -3 -33 2 -61 12 -41 13 -55 14 -71 5
-37 -24 -69 2 -118 96 -48 94 -102 150 -188 196 -62 34 -160 63 -238 71 -62 6
-62 2 0 -9 56 -9 101 -55 147 -151 22 -46 40 -88 40 -94 0 -16 -40 -2 -67 23
-13 11 -26 18 -29 14 -4 -3 -14 2 -23 11 -9 10 -12 12 -7 5 13 -19 -14 -16
-45 5 -14 9 -52 44 -85 78 -32 33 -47 46 -33 30 14 -17 39 -49 55 -71 l29 -40
-38 33 c-47 40 -60 42 -22 2 37 -39 16 -39 -27 0 -40 36 -82 44 -46 8 12 -12
17 -23 12 -25 -6 -2 -57 9 -115 24 -57 15 -128 26 -157 26 -30 -1 -52 0 -50 2
9 8 196 71 288 97 82 22 94 28 55 24 -64 -6 -375 -112 -375 -127 0 -5 13 -16
30 -25 16 -10 65 -59 110 -110 94 -107 171 -161 284 -199 116 -39 262 -39 362
-1 60 22 143 37 180 31 19 -3 50 -7 69 -10 19 -3 35 -10 35 -14 0 -9 -85 -58
-372 -215 -176 -95 -324 -158 -370 -154 -12 1 -41 -5 -63 -12 -58 -20 -79 -15
-159 34 -73 46 -151 84 -189 92 -83 18 -148 24 -196 18 -79 -9 -193 -48 -254
-87 -54 -35 -222 -200 -222 -218 0 -6 23 -19 50 -29 28 -9 70 -29 95 -43 129
-72 309 -102 451 -74 114 23 195 66 266 140 53 56 66 65 107 70 25 4 59 13 74
20 39 21 54 12 36 -21 -8 -15 -14 -32 -14 -39 0 -14 -60 -76 -67 -69 -8 8
-165 -63 -216 -97 -49 -33 -151 -157 -188 -228 -64 -126 -79 -244 -50 -392 12
-59 21 -124 21 -143 0 -21 4 -33 10 -29 6 3 10 -1 10 -9 0 -21 9 -20 45 4 17
12 70 41 119 66 131 67 184 103 252 175 142 150 183 329 124 543 -11 39 -20
83 -20 97 0 60 111 152 285 237 344 169 527 257 570 274 140 56 297 90 310 68
4 -7 -2 -21 -13 -33 -11 -12 -27 -37 -36 -54 -9 -18 -20 -32 -24 -31 -21 5
-127 -37 -175 -69 -67 -46 -148 -139 -185 -213 -24 -48 -27 -69 -31 -171 -3
-111 -2 -119 27 -185 17 -38 41 -100 53 -139 12 -38 24 -72 26 -74 2 -2 33 25
70 61 38 35 95 83 129 106 185 124 259 310 204 507 -36 125 -43 162 -37 186 9
34 102 129 127 129 13 0 18 -4 15 -11 -5 -7 5 -8 29 -4 40 8 44 4 21 -23 -48
-54 -66 -82 -53 -82 8 0 18 4 24 9 5 5 27 14 49 21 21 7 55 30 75 51 31 33 47
41 120 58 164 39 237 50 460 70 233 21 309 21 420 -4 118 -26 233 -45 365 -60
72 -8 166 -24 209 -35 44 -11 93 -20 110 -20 40 0 58 -12 50 -33 -3 -9 -9 -17
-13 -17 -3 0 -19 -12 -36 -27 -84 -79 -92 -83 -180 -83 -133 0 -244 -44 -334
-132 -94 -92 -142 -203 -140 -324 0 -65 19 -168 33 -181 5 -4 6 1 2 12 -3 11
-10 61 -15 110 -11 103 0 185 30 226 10 15 19 34 19 41 0 22 103 132 157 167
58 39 118 56 147 43 20 -9 18 -11 -16 -26 -21 -9 -47 -16 -59 -16 -37 0 -3
-28 39 -32 l37 -3 -30 -15 c-33 -16 -112 -70 -102 -70 3 0 16 5 29 11 16 7 31
7 48 0 15 -6 19 -10 9 -10 -9 -1 -23 -8 -30 -17 -12 -15 -11 -16 11 -11 22 6
22 5 -2 -5 -29 -12 -37 -28 -15 -29 6 0 -17 -9 -51 -20 -35 -11 -62 -22 -59
-25 2 -3 23 2 46 9 l41 15 -21 -29 c-11 -16 -24 -27 -29 -24 -5 3 -12 0 -16
-6 -4 -8 -3 -9 4 -5 21 13 13 -5 -20 -44 -34 -39 -120 -196 -132 -240 -4 -14
14 13 39 59 63 117 118 188 235 311 110 115 105 115 101 10 0 -19 3 -51 8 -70
8 -31 9 -28 10 32 1 37 7 91 13 120 12 49 13 50 16 20 2 -18 7 -30 12 -27 5 3
14 -21 22 -52 l13 -58 3 68 c3 75 14 86 28 30 9 -32 10 -26 8 42 l-3 80 10
-60 c14 -81 6 -138 -29 -215 -32 -69 -65 -106 -148 -163 -75 -52 -239 -127
-277 -127 -11 0 -17 -3 -14 -7 10 -9 -41 -33 -58 -26 -9 3 -15 -1 -15 -11 0
-21 1 -21 94 20 309 137 380 188 437 311 39 85 48 135 40 226 -4 43 -4 81 -1
85 15 22 80 63 80 51 0 -10 3 -10 12 -1 20 20 40 15 33 -8 -8 -24 7 -26 26 -3
8 9 38 32 68 51 47 30 65 36 130 39 42 3 94 11 116 19 56 19 63 18 91 -15 14
-17 41 -40 60 -51 49 -31 86 -13 49 23 -8 8 -11 17 -8 21 10 10 267 -3 378
-19 55 -8 120 -17 145 -19 137 -13 180 -19 233 -34 50 -15 63 -24 98 -69 22
-29 50 -55 63 -59 56 -14 83 14 48 52 -26 27 -56 74 -51 79 3 2 49 -3 104 -10
55 -8 204 -26 330 -40 328 -36 502 -60 645 -89 122 -24 174 -32 273 -40 55 -5
69 -12 41 -23 -10 -4 -39 -22 -64 -39 -55 -39 -206 -118 -322 -168 -104 -45
-139 -45 -271 -4 -127 39 -256 43 -349 10 -132 -48 -256 -158 -335 -301 -20
-36 -50 -86 -65 -110 -15 -25 -28 -49 -28 -53 0 -5 30 -8 68 -7 37 2 128 -1
202 -5 153 -9 215 1 344 54 77 32 145 93 256 228 57 69 117 105 193 115 26 4
47 4 47 1 0 -14 -50 -101 -67 -116 -19 -17 -122 -77 -178 -103 -61 -28 -135
-131 -173 -243 -42 -120 -27 -245 49 -410 16 -35 29 -66 29 -70 0 -15 54 -132
61 -132 4 0 28 28 52 63 25 34 83 100 128 147 124 128 184 231 211 366 14 72
-3 170 -47 261 -21 47 -35 90 -35 114 0 36 7 46 78 117 69 68 161 129 204 136
7 1 18 4 23 7 6 4 23 9 40 13 16 4 47 20 68 36 66 48 217 94 347 104 36 3 99
10 140 16 41 5 172 10 290 10 118 0 265 5 325 10 357 30 357 30 665 94 142 30
188 39 315 61 50 9 107 23 128 32 60 26 98 -6 57 -47 -17 -17 -29 -21 -52 -16
-18 3 -41 0 -58 -9 -16 -8 -44 -15 -62 -15 -29 -1 -31 -2 -14 -12 14 -8 33 -7
71 2 29 7 58 11 64 9 7 -3 -9 -27 -36 -57 l-48 -53 -105 -14 c-91 -12 -118
-20 -200 -62 -148 -74 -256 -194 -295 -328 -9 -33 -23 -113 -31 -178 -8 -65
-16 -128 -19 -140 -10 -41 7 -49 52 -26 23 11 82 27 130 36 98 17 206 50 291
91 76 36 207 167 247 247 28 55 30 68 29 160 0 55 -2 125 -4 155 -3 60 0 73
18 108 14 24 47 30 56 10 3 -9 11 -5 25 12 31 37 35 43 49 70 12 23 106 97
162 128 14 8 59 27 100 44 41 16 125 51 185 78 61 27 151 62 200 78 123 41
177 66 199 91 11 11 28 21 38 21 17 0 17 -2 3 -29 -8 -16 -26 -38 -40 -49 -30
-24 -32 -36 -5 -29 25 6 25 6 -4 -51 -23 -46 -26 -48 -95 -64 -122 -29 -259
-128 -333 -242 -78 -121 -100 -261 -68 -441 13 -74 21 -99 31 -97 34 8 266
105 306 129 83 48 211 180 251 257 35 67 37 77 37 161 -1 79 -5 100 -33 165
-18 41 -32 79 -32 85 0 5 10 26 21 45 20 32 23 33 29 15 7 -17 13 -9 39 46 17
36 44 77 59 91 45 43 234 133 482 228 129 50 305 118 390 152 85 33 214 77
285 99 72 21 156 48 188 58 32 11 57 17 55 13 -2 -4 -14 -29 -27 -55 -37 -80
-78 -133 -187 -245 -82 -84 -102 -111 -98 -127 9 -29 9 -29 70 -12 80 23 111
48 174 139 30 44 62 88 71 98 9 10 21 25 26 34 5 9 41 52 81 95 59 65 86 86
154 119 46 22 126 52 178 65 90 24 333 64 523 87 113 14 329 65 378 90 21 11
43 29 49 40 9 17 5 23 -30 45 -22 14 -40 32 -40 39 0 8 -6 17 -12 19 -9 4 -7
6 3 6 18 1 44 50 32 62 -12 12 -83 20 -83 10 0 -5 -10 -12 -22 -14 -13 -2 1
-5 30 -6 28 0 52 -4 52 -8 -1 -22 -54 -43 -117 -47 -37 -3 -105 -7 -150 -11
-55 -4 -83 -3 -83 4 0 11 64 26 78 18 4 -3 35 2 68 13 40 12 54 20 42 25 -9 3
-30 -1 -47 -9 -16 -9 -54 -16 -84 -16 -29 0 -59 -6 -65 -12 -9 -9 -57 -12
-179 -10 -146 2 -172 0 -220 -18 -60 -22 -73 -24 -73 -11 0 5 15 12 34 15 18
4 41 15 51 26 22 24 18 25 -28 5 -20 -8 -47 -15 -60 -15 -13 0 -32 -7 -43 -16
-18 -15 -18 -15 11 -10 28 5 28 5 8 -6 -13 -6 -23 -14 -23 -19 0 -4 -14 -12
-30 -18 -21 -7 -29 -7 -24 0 3 6 -2 10 -12 9 -32 -4 -40 0 -24 11 10 7 11 9 2
7 -8 -2 -12 -8 -10 -13 3 -11 -65 -24 -127 -23 l-40 0 33 14 c39 17 42 27 5
17 -51 -12 -112 -43 -145 -73 -27 -25 -41 -30 -81 -30 -30 0 -46 4 -42 10 11
17 -11 11 -29 -9 -10 -11 -38 -21 -68 -25 -28 -4 -60 -11 -69 -17 -10 -5 -33
-11 -50 -13 -18 -2 -39 -13 -48 -25 -15 -19 -79 -46 -89 -36 -2 2 16 9 39 16
32 9 38 14 23 16 -25 5 -130 -36 -171 -65 -16 -11 -45 -29 -66 -41 l-39 -22
-51 25 c-29 13 -81 34 -117 47 -36 12 -74 29 -85 37 -18 13 -18 13 13 7 18 -4
45 -13 62 -21 26 -13 33 -13 61 2 18 9 78 33 133 54 56 21 109 41 119 45 31
13 18 -10 -18 -29 -19 -11 -33 -21 -31 -23 2 -3 19 3 38 13 18 9 67 25 108 34
41 10 107 31 145 48 116 49 126 45 20 -8 -55 -28 -91 -47 -80 -44 67 22 171
65 209 88 25 15 91 42 147 62 55 19 119 47 141 62 36 23 167 66 176 57 2 -1
-27 -13 -65 -26 -78 -26 -70 -38 9 -16 29 8 94 20 143 27 50 6 125 18 168 26
42 8 101 13 130 13 51 -2 46 -3 -62 -15 -29 -3 -49 -9 -45 -14 13 -12 279 16
363 39 41 11 87 17 102 14 15 -3 35 0 46 6 36 21 -166 13 -230 -9 -31 -11 -71
-20 -89 -19 l-33 1 37 12 c20 6 40 14 44 19 4 4 25 7 46 7 21 0 38 5 38 10 0
15 -24 12 -87 -10 -61 -21 -131 -28 -103 -10 23 15 -2 13 -80 -6 -36 -8 -96
-17 -135 -20 -61 -4 -68 -3 -53 9 10 8 15 16 13 19 -3 3 16 8 41 12 57 7 69 1
23 -13 l-34 -9 32 -1 c17 -1 38 6 46 14 22 21 56 26 232 31 109 3 190 -1 255
-10 57 -9 99 -11 104 -6 33 32 -329 61 -514 41 -58 -7 -170 -18 -250 -26 -80
-8 -201 -26 -270 -41 -185 -38 -235 -43 -294 -28 -125 30 -193 71 -257 157
-18 24 -27 27 -82 27 -84 0 -226 55 -415 161 -81 45 -160 89 -177 97 -98 50
-183 125 -225 197 -57 100 -46 135 72 232 124 102 181 162 221 234 77 140 91
278 43 449 -14 52 -26 113 -26 135 0 30 -3 36 -10 25 -5 -8 -10 -11 -10 -7 0
5 -13 -1 -29 -12 -16 -12 -34 -21 -41 -21 -23 0 -184 -94 -239 -140 -63 -52
-131 -150 -163 -232 -28 -74 -35 -205 -14 -285 9 -34 38 -99 64 -145 42 -75
47 -88 44 -136 -4 -68 -22 -76 -67 -32 -34 33 -95 137 -95 161 0 8 -13 42 -30
77 -76 161 -273 291 -470 311 -92 10 -260 -3 -297 -23 -21 -11 -21 -12 27 -84
27 -41 70 -111 95 -157 78 -139 157 -206 303 -257 78 -28 100 -31 217 -33 99
-1 137 -5 161 -18 24 -12 205 -157 248 -198 22 -21 -76 8 -160 47 -50 23 -116
47 -148 54 -136 28 -317 -37 -396 -142 -31 -40 -120 -190 -120 -200 0 -5 5 -8
10 -8 6 0 10 9 10 19 0 10 6 18 13 18 6 -1 68 26 137 60 187 90 274 116 325
97 14 -6 13 -8 -4 -21 -12 -8 -26 -24 -33 -36 -11 -21 -10 -21 7 -7 17 14 18
13 11 -5 -4 -11 9 -1 28 21 42 50 76 63 76 31 0 -17 2 -19 9 -7 6 8 8 17 6 21
-10 15 30 36 55 28 23 -6 23 -7 3 -8 -33 -1 -39 -21 -7 -21 l28 0 -44 -46
c-126 -128 -284 -173 -452 -129 -89 23 -102 24 -128 9 -24 -13 -22 -13 30 -14
30 0 89 -7 130 -16 92 -19 181 -12 263 21 58 24 67 30 177 124 63 53 64 53
114 47 28 -4 65 -8 81 -10 37 -3 72 -21 182 -94 86 -57 111 -72 232 -141 225
-127 424 -249 429 -262 2 -5 10 -9 18 -9 34 0 8 -20 -78 -60 -141 -66 -232
-96 -407 -136 l-160 -37 -153 47 c-84 26 -218 67 -298 91 -407 122 -786 248
-999 331 -62 25 -193 74 -290 110 -97 37 -260 99 -363 140 -103 41 -190 74
-193 74 -3 0 -65 23 -138 51 -155 60 -253 109 -236 119 6 4 19 5 29 3 27 -7
175 23 203 42 14 9 31 30 38 46 11 28 10 33 -12 54 -13 13 -100 63 -194 111
-258 133 -288 153 -341 225 -26 35 -208 224 -404 419 -372 370 -351 346 -565
656 -94 137 -174 230 -296 350 -125 121 -224 199 -339 266 -82 48 -286 145
-336 159 -17 5 -58 26 -90 47 -139 91 -222 194 -344 427 -198 381 -336 534
-600 666 -168 84 -436 125 -615 95z m3 -543 c3 -20 -1 -23 -32 -23 -38 0 -47
15 -24 38 20 20 53 10 56 -15z m-1058 -147 c-20 -8 -51 -16 -70 -20 -28 -5
-25 -2 15 13 28 11 59 19 70 20 12 0 6 -6 -15 -13z m147 -2 c-3 -3 -12 -4 -19
-1 -8 3 -5 6 6 6 11 1 17 -2 13 -5z m-54 -11 c-7 -2 -19 -2 -25 0 -7 3 -2 5
12 5 14 0 19 -2 13 -5z m-46 -9 c-3 -3 -12 -4 -19 -1 -8 3 -5 6 6 6 11 1 17
-2 13 -5z m-47 -44 c-14 -4 -43 -8 -65 -8 l-40 1 35 7 c19 4 49 8 65 8 29 0
29 0 5 -8z m-180 -10 c-8 -5 -24 -9 -35 -9 l-20 0 20 9 c11 5 27 9 35 9 13 1
13 0 0 -9z m603 -17 c-7 -2 -19 -2 -25 0 -7 3 -2 5 12 5 14 0 19 -2 13 -5z
m-65 -60 c-27 -2 -69 -2 -95 0 -27 2 -5 3 47 3 52 0 74 -1 48 -3z m110 -10
c-10 -2 -26 -2 -35 0 -10 3 -2 5 17 5 19 0 27 -2 18 -5z m65 -10 c-7 -2 -19
-2 -25 0 -7 3 -2 5 12 5 14 0 19 -2 13 -5z m2184 -429 c-3 -3 -12 -4 -19 -1
-8 3 -5 6 6 6 11 1 17 -2 13 -5z m103 -44 c8 -5 11 -10 5 -10 -5 0 -17 5 -25
10 -8 5 -10 10 -5 10 6 0 17 -5 25 -10z m120 -66 c0 -2 -13 2 -30 11 -16 9
-30 18 -30 21 0 2 14 -2 30 -11 17 -9 30 -18 30 -21z m-652 -95 c152 -17 285
-70 452 -180 63 -42 129 -83 145 -91 17 -9 38 -25 49 -37 10 -11 48 -39 85
-63 36 -23 120 -81 186 -128 66 -48 184 -124 262 -170 78 -46 141 -85 139 -87
-7 -8 -116 -10 -116 -3 0 4 -7 11 -16 14 -14 5 -15 4 -4 -9 14 -17 7 -19 -18
-6 -9 4 -30 11 -46 15 -23 6 -27 4 -22 -9 9 -24 -39 -38 -107 -30 -32 3 -66 9
-74 12 -11 4 -14 2 -9 -5 16 -26 -140 -17 -178 11 -16 12 -26 16 -22 9 9 -15
1 -15 -26 -1 -13 7 -24 7 -30 1 -6 -6 -34 -4 -76 4 -37 8 -89 18 -117 23 -27
5 -69 16 -92 25 -22 8 -43 13 -46 10 -2 -2 -21 3 -43 12 -36 15 -37 15 -24 -1
13 -16 10 -15 -25 2 -22 11 -80 40 -130 63 -49 23 -105 56 -124 74 -22 20 -32
25 -28 13 6 -16 5 -16 -26 -1 -17 9 -45 26 -61 37 -16 12 -26 15 -21 7 6 -9 4
-11 -6 -5 -168 101 -280 201 -351 311 l-27 42 27 25 c15 14 50 35 79 48 29 12
51 27 50 32 -4 19 50 28 276 46 10 0 62 -4 115 -10z m497 -889 c3 -5 1 -10 -4
-10 -6 0 -11 5 -11 10 0 6 2 10 4 10 3 0 8 -4 11 -10z m210 0 c3 -6 -1 -7 -9
-4 -18 7 -21 14 -7 14 6 0 13 -4 16 -10z m910 0 c3 -6 -1 -7 -9 -4 -18 7 -21
14 -7 14 6 0 13 -4 16 -10z m-1049 -45 c23 -12 25 -15 9 -15 -11 1 -29 7 -39
15 -26 19 -6 19 30 0z m280 -33 c-5 -4 -66 26 -66 33 0 3 16 -3 35 -12 19 -9
33 -18 31 -21z m394 -2 c8 -5 11 -10 5 -10 -5 0 -17 5 -25 10 -8 5 -10 10 -5
10 6 0 17 -5 25 -10z m4120 -69 c0 -15 10 -63 21 -107 43 -159 41 -250 -7
-372 -33 -81 -73 -141 -132 -199 -45 -43 -128 -90 -139 -80 -3 3 16 16 41 28
62 28 70 44 10 19 -55 -24 -64 -22 -23 5 45 31 34 39 -14 10 -53 -31 -56 -31
-50 -2 4 22 4 22 -18 -3 -16 -18 -20 -20 -16 -7 4 10 7 23 7 28 0 5 18 16 40
25 47 19 48 28 2 15 -31 -9 -31 -9 -25 22 3 18 23 71 44 118 22 48 39 91 39
96 0 5 34 75 75 156 41 82 75 155 75 163 0 8 4 13 9 9 6 -3 15 4 21 16 8 15 9
19 1 15 -17 -11 -13 5 6 26 9 10 14 21 11 23 -8 9 -73 -95 -87 -138 -7 -20
-16 -35 -21 -32 -4 3 -6 -3 -3 -14 3 -10 0 -22 -6 -25 -7 -5 -11 6 -12 31 -1
30 -4 25 -12 -27 -10 -60 -11 -63 -17 -32 -12 52 -23 52 -15 0 8 -54 -6 -107
-36 -134 -19 -17 -20 -17 -13 1 5 12 4 16 -4 11 -6 -4 -11 -22 -10 -40 1 -18
-6 -43 -15 -56 -14 -21 -15 -19 -11 41 l4 64 -13 -58 c-8 -31 -12 -72 -9 -90
l4 -32 -26 35 -27 35 6 -45 c3 -25 8 -58 11 -74 7 -48 -9 -21 -43 72 -22 60
-32 78 -32 59 -1 -16 3 -36 8 -45 5 -9 12 -39 15 -67 l6 -50 -22 60 c-11 33
-29 89 -38 125 -10 36 -19 54 -19 40 -1 -14 4 -42 10 -63 6 -21 17 -66 24
-100 8 -34 17 -72 21 -84 4 -14 2 -23 -5 -23 -6 0 -11 7 -11 15 0 8 -6 12 -14
9 -24 -9 -56 70 -56 138 0 72 29 151 87 240 59 90 125 144 261 213 62 31 115
61 118 66 10 16 24 -1 24 -30z m-3835 -1 c13 -5 14 -9 5 -9 -8 0 -24 4 -35 9
-13 5 -14 9 -5 9 8 0 24 -4 35 -9z m280 -30 c3 -6 -1 -7 -9 -4 -18 7 -21 14
-7 14 6 0 13 -4 16 -10z m-6438 -172 c35 -34 65 -69 68 -79 3 -9 12 -20 20
-23 20 -7 49 -68 80 -170 22 -74 26 -103 23 -175 -3 -77 -8 -96 -40 -162 -21
-41 -46 -84 -58 -94 -19 -17 -19 -14 5 39 31 71 31 79 -1 41 -19 -22 -22 -24
-14 -7 12 24 -1 64 -14 43 -4 -6 -11 -11 -16 -11 -4 0 1 17 11 37 11 22 15 39
9 43 -5 3 -1 13 10 22 26 23 74 97 67 104 -3 3 -11 -5 -19 -19 -22 -42 -148
-169 -148 -150 1 10 7 29 15 43 18 32 19 44 1 37 -10 -4 -12 0 -9 14 3 10 9
19 13 19 4 0 11 7 14 16 3 8 2 12 -4 9 -18 -11 -10 14 18 57 32 48 57 106 50
114 -3 2 -15 -19 -27 -48 -22 -55 -119 -173 -106 -130 4 13 2 22 -4 22 -6 0
-11 -10 -12 -22 -1 -37 -8 -9 -17 72 -5 41 -6 80 -2 85 10 12 60 188 56 193
-2 1 -9 -12 -16 -30 -7 -18 -21 -51 -30 -73 -10 -22 -20 -47 -22 -55 -3 -8
-10 12 -17 45 -6 33 -20 89 -31 125 -17 57 -39 178 -40 218 0 16 97 -62 187
-150z m5042 115 c2 -2 0 -3 -5 -3 -5 0 -22 12 -39 26 l-30 26 35 -23 c19 -12
37 -24 39 -26z m1307 11 c35 -20 64 -38 64 -40 0 -2 -31 12 -70 31 -63 32 -82
45 -64 45 3 0 35 -16 70 -36z m2 -48 c28 -14 52 -29 52 -31 0 -9 -114 52 -140
75 l-25 22 30 -20 c17 -11 54 -31 83 -46z m202 -22 c0 -5 -16 7 -35 26 -19 19
-35 38 -35 43 0 6 16 -6 35 -26 19 -20 35 -39 35 -43z m-397 -118 c76 -37 136
-70 134 -73 -6 -5 -287 134 -287 143 0 3 3 3 8 1 4 -2 69 -34 145 -71z m192
-14 c-3 -3 -11 0 -18 7 -9 10 -8 11 6 5 10 -3 15 -9 12 -12z m-338 -80 c82
-43 178 -94 215 -113 37 -18 65 -35 63 -37 -4 -4 -296 144 -380 193 -105 61
-50 38 102 -43z m698 48 c10 -11 16 -20 13 -20 -3 0 -13 9 -23 20 -10 11 -16
20 -13 20 3 0 13 -9 23 -20z m-225 -20 c8 -5 11 -10 5 -10 -5 0 -17 5 -25 10
-8 5 -10 10 -5 10 6 0 17 -5 25 -10z m-155 -20 c3 -6 -1 -7 -9 -4 -18 7 -21
14 -7 14 6 0 13 -4 16 -10z m-106 -26 c14 -12 -19 -1 -35 12 -18 14 -18 14 6
3 14 -6 27 -13 29 -15z m556 -5 c15 -14 -7 -10 -35 7 l-25 15 25 -7 c14 -3 29
-10 35 -15z m-945 -9 c8 -5 11 -10 5 -10 -5 0 -17 5 -25 10 -8 5 -10 10 -5 10
6 0 17 -5 25 -10z m120 -60 c41 -21 71 -39 65 -39 -5 0 -44 18 -85 39 -41 21
-70 39 -65 39 6 0 44 -18 85 -39z m3120 -1 c114 -42 259 -152 296 -224 30 -59
51 -123 44 -135 -5 -8 -10 -3 -14 13 -3 13 -15 44 -26 68 -20 44 -20 44 -15 9
6 -35 6 -35 -9 -10 -14 22 -15 23 -16 5 -1 -18 -2 -17 -16 5 -15 25 -15 25 -9
-10 6 -40 -2 -26 -30 53 -21 58 -31 56 -15 -3 9 -33 9 -45 0 -50 -9 -5 -9 -9
-1 -14 6 -4 11 -12 11 -18 0 -23 -28 14 -34 45 -4 18 -13 41 -21 51 -15 20
-15 20 -15 0 0 -16 -2 -17 -10 -4 -5 8 -10 11 -10 6 0 -6 12 -23 28 -39 l27
-29 -27 13 c-16 7 -28 15 -28 19 0 4 -9 10 -20 13 -14 3 -20 14 -21 34 -1 23
-2 24 -6 6 -2 -13 -7 -23 -10 -23 -3 0 -52 23 -107 50 -78 39 -109 60 -136 95
-38 49 -50 53 -26 8 24 -44 59 -80 83 -87 49 -15 258 -138 291 -171 20 -19 39
-35 44 -35 4 0 8 -4 8 -9 0 -5 -8 -8 -17 -6 -66 13 -87 15 -78 6 6 -6 27 -12
48 -14 46 -5 61 -17 21 -17 -27 -1 -28 -1 -9 -13 19 -11 18 -12 -15 -19 -25
-5 -16 -6 30 -4 36 2 56 1 46 -2 -15 -3 -16 -6 -5 -12 7 -5 10 -12 6 -16 -3
-4 -14 -1 -23 7 -15 12 -16 11 -10 -8 11 -34 -32 -40 -134 -19 -122 25 -213
75 -289 159 -26 29 -104 151 -142 222 -12 22 -32 54 -45 72 -18 24 -21 34 -12
40 26 15 97 22 223 19 107 -3 141 -8 195 -27z m-3255 -7 c-3 -3 -11 0 -18 7
-9 10 -8 11 6 5 10 -3 15 -9 12 -12z m1090 -47 c11 -9 -2 -4 -30 11 -27 15
-54 32 -60 37 -16 15 68 -29 90 -48z m-1050 27 c-3 -3 -11 0 -18 7 -9 10 -8
11 6 5 10 -3 15 -9 12 -12z m90 -40 c-3 -3 -11 0 -18 7 -9 10 -8 11 6 5 10 -3
15 -9 12 -12z m40 -20 c-3 -3 -11 0 -18 7 -9 10 -8 11 6 5 10 -3 15 -9 12 -12z
m431 -18 c47 -20 83 -38 81 -41 -4 -3 -166 64 -176 73 -12 11 19 0 95 -32z
m524 -11 c0 -7 -39 17 -46 28 -3 6 5 3 20 -6 14 -10 26 -19 26 -22z m-1248 6
c29 -11 57 -25 63 -30 5 -5 -17 1 -50 15 -33 13 -67 26 -75 29 -8 3 -10 6 -3
6 7 1 36 -8 65 -20z m388 -14 c36 -19 61 -34 55 -34 -5 0 -39 15 -75 34 -36
19 -60 34 -55 34 6 0 39 -15 75 -34z m3440 -50 c10 -12 40 -95 40 -110 0 -5
-7 4 -15 20 -28 59 -45 108 -44 124 1 11 3 10 6 -4 3 -11 9 -25 13 -30z
m-2980 15 c8 -5 11 -10 5 -10 -5 0 -17 5 -25 10 -8 5 -10 10 -5 10 6 0 17 -5
25 -10z m-289 -48 c-7 -2 -18 1 -23 6 -8 8 -4 9 13 5 13 -4 18 -8 10 -11z
m616 2 c-3 -3 -12 -4 -19 -1 -8 3 -5 6 6 6 11 1 17 -2 13 -5z m-6807 -71 c-1
-5 -12 -21 -26 -38 -17 -21 -23 -24 -18 -10 11 30 45 68 44 48z m7095 -3 c3
-6 -1 -7 -9 -4 -18 7 -21 14 -7 14 6 0 13 -4 16 -10z m342 -176 c-6 -6 -98 37
-115 54 -7 6 -19 12 -27 12 -13 0 -155 78 -155 85 0 2 68 -30 151 -71 83 -42
148 -78 146 -80z m-7694 -15 c27 -29 20 -32 -15 -7 -41 29 -58 45 -58 53 0 9
50 -23 73 -46z m-363 4 c0 -7 -39 17 -46 28 -3 6 5 3 20 -6 14 -10 26 -19 26
-22z m7967 -19 c-3 -3 -12 -4 -19 -1 -8 3 -5 6 6 6 11 1 17 -2 13 -5z m2252
-94 c0 -3 -6 4 -14 14 -8 11 -15 36 -14 55 0 35 1 34 14 -14 8 -27 14 -52 14
-55z m-144 50 c3 -5 -3 -10 -14 -10 -11 0 -23 5 -26 10 -3 6 3 10 14 10 11 0
23 -4 26 -10z m87 -68 c32 -20 37 -32 9 -25 -10 3 -34 21 -52 41 -26 27 -28
32 -9 19 14 -10 37 -25 52 -35z m-10114 3 c-3 -3 -9 2 -12 12 -6 14 -5 15 5 6
7 -7 10 -15 7 -18z m9921 -56 c29 -9 36 -16 36 -35 -1 -23 -15 -48 -15 -27 0
5 -12 15 -27 22 -23 11 -25 10 -14 -3 25 -29 6 -34 -44 -12 -27 13 -63 26 -80
29 -26 5 -24 4 10 -13 22 -10 46 -19 53 -19 6 -1 12 -6 12 -12 0 -7 -10 -9
-25 -5 -14 4 -25 2 -25 -4 0 -5 24 -11 53 -11 l52 -2 -55 -9 c-85 -14 -380
-136 -422 -175 -10 -9 -18 -11 -18 -5 0 6 5 14 10 17 6 4 25 31 42 61 34 62
105 137 151 161 96 49 223 67 306 42z m-9410 -26 c0 -25 -1 -26 -9 -8 -12 27
-12 35 0 35 6 0 10 -12 9 -27z m9787 -33 c42 -33 92 -69 112 -79 21 -10 87
-46 147 -81 123 -71 226 -120 330 -157 39 -14 72 -29 75 -34 3 -5 34 -9 69
-10 55 -2 64 -5 71 -25 5 -12 19 -28 30 -34 12 -6 19 -14 16 -17 -3 -3 -12 0
-21 7 -8 7 -15 8 -15 2 0 -5 16 -17 35 -26 19 -9 35 -24 35 -33 0 -9 8 -25 18
-36 16 -19 16 -20 -5 -8 -13 6 -26 23 -29 37 -4 17 -9 22 -14 14 -5 -9 -28 3
-75 39 -38 28 -63 51 -56 51 6 0 11 4 11 8 0 4 -18 7 -40 5 -22 -1 -38 2 -35
6 3 5 -2 12 -11 15 -8 3 -12 2 -9 -4 11 -18 -25 -10 -103 22 -100 41 -158 74
-154 88 1 7 -5 9 -18 5 -11 -3 -20 -2 -20 4 0 15 -65 51 -92 51 -14 0 -31 7
-38 15 -7 8 -18 15 -25 15 -7 0 -34 17 -61 38 -27 21 -70 49 -97 61 -26 13
-45 26 -42 31 3 4 -3 14 -13 21 -15 13 -16 12 -3 -3 21 -27 3 -21 -41 13 -37
30 -48 56 -11 28 15 -11 16 -11 6 1 -13 14 -17 30 -8 30 3 0 39 -27 81 -60z
m-10359 44 c-3 -3 -12 -4 -19 -1 -8 3 -5 6 6 6 11 1 17 -2 13 -5z m1111 -117
c11 -13 29 -96 19 -87 -9 8 -47 123 -46 140 0 8 5 2 9 -13 5 -16 13 -34 18
-40z m-750 27 c31 -9 64 -23 72 -31 12 -11 7 -11 -24 2 -21 9 -47 14 -57 12
-10 -3 -33 6 -51 20 -18 14 -25 23 -15 20 10 -4 43 -14 75 -23z m9902 -6 c13
-8 13 -9 -1 -5 -9 3 -37 9 -63 12 -25 4 -48 11 -51 15 -6 10 96 -9 115 -22z
m95 -18 c3 -6 -1 -7 -9 -4 -18 7 -21 14 -7 14 6 0 13 -4 16 -10z m-10295 -4
c0 -2 -19 -13 -42 -24 -48 -22 -133 -40 -108 -23 8 6 25 11 38 11 12 0 39 9
59 20 36 19 53 24 53 16z m8150 -16 c8 -5 11 -10 5 -10 -5 0 -17 5 -25 10 -8
5 -10 10 -5 10 6 0 17 -5 25 -10z m-7600 -19 c0 -5 9 -7 19 -4 11 3 26 0 33
-6 7 -6 45 -32 83 -58 39 -26 76 -53 84 -61 8 -7 38 -31 67 -53 29 -21 93 -71
141 -109 98 -79 254 -186 266 -182 7 2 57 -31 163 -107 22 -16 75 -48 118 -70
46 -25 68 -41 55 -41 -21 0 -21 0 2 -20 37 -30 13 -23 -44 13 -29 18 -77 45
-107 60 -30 14 -85 47 -122 74 -36 26 -88 61 -113 76 -26 15 -45 31 -41 34 3
3 12 0 21 -7 9 -7 18 -10 21 -7 10 9 -34 27 -51 21 -10 -4 -32 9 -63 37 -95
88 -176 147 -142 103 14 -17 14 -18 -2 -6 -10 8 -16 19 -15 24 1 6 -6 12 -16
13 -17 3 -135 101 -189 157 -15 15 -34 28 -42 28 -8 0 -34 18 -57 40 -42 40
-56 49 -44 30 7 -12 -8 -14 -19 -2 -4 4 -24 12 -44 18 l-37 12 38 1 c20 1 37
-3 37 -8z m540 -11 c6 -11 8 -20 6 -20 -3 0 -10 9 -16 20 -6 11 -8 20 -6 20 3
0 10 -9 16 -20z m7205 -11 c33 -16 49 -26 35 -22 -14 4 -33 7 -42 7 -10 0 -18
4 -18 8 0 4 -8 5 -17 2 -14 -5 -15 -4 -4 4 10 7 7 12 -15 20 -16 6 -22 10 -14
10 8 0 42 -13 75 -29z m1577 9 c-7 -7 -12 -8 -12 -2 0 14 12 26 19 19 2 -3 -1
-11 -7 -17z m-1447 -59 c5 -5 -6 -4 -25 2 -45 15 -54 24 -15 15 17 -4 34 -12
40 -17z m-515 -74 c14 -8 21 -14 15 -14 -5 0 -21 6 -35 14 -14 8 -20 14 -15
14 6 0 21 -6 35 -14z m-452 -138 c122 -59 224 -107 227 -107 2 0 69 -29 147
-64 217 -96 342 -142 468 -171 63 -15 176 -46 250 -70 74 -24 169 -51 210 -61
41 -9 101 -26 133 -36 153 -49 393 -61 469 -23 37 18 39 18 150 -8 305 -72
418 -99 432 -101 24 -3 32 -16 10 -16 -21 0 -192 -57 -340 -113 -263 -100
-741 -250 -979 -307 -153 -37 -166 -38 -300 -42 -143 -3 -171 5 -258 74 l-38
30 6 -25 c4 -14 2 -28 -4 -31 -18 -12 -12 -23 19 -36 37 -15 34 -25 -4 -11
-16 7 -26 7 -26 1 0 -6 -10 -5 -25 2 -14 6 -25 18 -25 26 0 12 4 12 20 -3 16
-14 20 -15 20 -3 0 8 -20 28 -44 45 -37 26 -53 50 -106 159 -52 107 -74 140
-124 189 -115 113 -264 165 -435 151 -138 -11 -209 -21 -218 -30 -4 -5 10 -6
32 -3 199 28 239 30 330 12 112 -22 162 -43 214 -90 23 -21 41 -34 41 -30 0 5
9 0 19 -9 21 -20 71 -136 70 -164 0 -12 -3 -10 -10 8 -7 17 -12 21 -18 12 -5
-8 -13 9 -21 45 -7 32 -19 67 -27 78 l-15 20 5 -20 c22 -81 28 -108 25 -111
-3 -2 -12 19 -22 47 -21 58 -29 60 -16 6 7 -32 6 -36 -6 -26 -13 10 -13 8 -4
-17 l10 -29 -19 25 c-11 14 -25 25 -31 25 -6 0 -19 10 -29 23 l-17 23 1 -23
c0 -13 4 -29 9 -37 5 -8 -1 -7 -18 4 -15 10 -56 62 -92 116 -36 55 -67 99 -69
99 -2 0 16 -36 40 -80 29 -55 39 -80 29 -80 -8 0 -27 24 -43 53 -17 28 -49 70
-73 92 -23 22 -36 31 -28 20 8 -11 24 -29 37 -41 13 -12 30 -38 38 -58 15 -36
15 -36 -5 -24 -11 7 -20 16 -20 20 0 4 -7 5 -15 2 -10 -4 -13 -2 -10 7 3 8
-13 34 -36 59 l-41 45 37 -52 c20 -29 35 -53 33 -53 -3 0 -41 20 -85 43 -62
34 -92 44 -129 44 l-49 1 45 -23 c60 -30 108 -43 57 -15 -54 30 -40 36 17 9
32 -16 42 -26 33 -31 -9 -7 -8 -8 3 -7 24 4 86 -27 174 -85 45 -29 101 -65
126 -79 25 -15 56 -36 70 -48 22 -18 23 -20 5 -16 -11 2 -26 -2 -33 -9 -18
-19 -15 -26 8 -19 13 4 22 1 26 -9 3 -9 12 -16 20 -16 8 0 14 -4 14 -10 0 -5
-11 -10 -25 -10 -47 0 -25 -20 23 -21 l47 -1 -43 -10 c-23 -5 -40 -13 -37 -18
3 -5 -12 -11 -32 -13 -27 -2 -19 -4 27 -6 62 -3 63 -4 32 -14 -45 -14 -169 5
-240 38 -82 38 -205 169 -266 283 -74 139 -85 143 -17 7 109 -218 240 -322
443 -355 68 -11 90 -10 174 5 75 15 100 16 113 7 9 -7 23 -15 31 -19 24 -10
104 -65 121 -82 26 -27 11 -39 -59 -50 -235 -36 -575 -53 -1057 -53 -449 -1
-508 3 -830 52 -71 11 -148 20 -170 20 -52 0 -122 19 -106 29 9 6 9 14 1 33
-19 41 -61 60 -200 89 -59 12 -126 59 -122 85 2 10 21 43 42 74 21 30 84 127
141 215 144 224 191 287 235 310 10 6 30 34 44 63 27 56 44 65 54 30 5 -19 8
-21 16 -8 15 23 12 65 -10 120 -24 61 -24 64 -5 57 8 -4 17 -2 20 3 4 6 16 10
28 10 12 0 45 9 73 19 28 11 100 25 160 32 60 6 120 16 134 22 24 10 23 11
-20 17 -29 5 -35 8 -17 8 15 1 27 7 27 13 0 6 7 9 15 5 8 -3 14 0 12 7 -1 8
11 11 41 9 23 -1 42 2 42 7 0 5 35 10 77 10 42 0 79 4 82 8 3 4 40 9 81 9 104
2 215 13 218 22 1 4 60 7 130 7 l128 -1 222 -107z m727 63 c3 -6 -1 -7 -9 -4
-18 7 -21 14 -7 14 6 0 13 -4 16 -10z m650 -11 c5 -5 -5 -4 -23 2 -17 6 -32
13 -32 16 0 7 43 -8 55 -18z m-695 -14 c14 -8 21 -14 15 -14 -5 0 -21 6 -35
14 -14 8 -20 14 -15 14 6 0 21 -6 35 -14z m2680 0 c14 -8 21 -14 15 -14 -5 0
-21 6 -35 14 -14 8 -20 14 -15 14 6 0 21 -6 35 -14z m-1955 -31 c24 -11 25
-13 5 -8 -14 4 -38 13 -55 20 -24 11 -25 13 -5 8 14 -4 39 -13 55 -20z m-7698
-26 c-3 -8 -6 -5 -6 6 -1 11 2 17 5 13 3 -3 4 -12 1 -19z m7228 12 c3 -6 -1
-7 -9 -4 -18 7 -21 14 -7 14 6 0 13 -4 16 -10z m579 1 c4 -5 -3 -7 -14 -4 -23
6 -26 13 -6 13 8 0 17 -4 20 -9z m-3089 -11 c3 -5 1 -10 -4 -10 -6 0 -11 5
-11 10 0 6 2 10 4 10 3 0 8 -4 11 -10z m-505 -10 c8 -5 11 -10 5 -10 -5 0 -17
5 -25 10 -8 5 -10 10 -5 10 6 0 17 -5 25 -10z m-4656 -28 c21 -12 43 -22 49
-21 23 4 48 -14 63 -45 l15 -31 -30 35 c-34 39 -43 33 -11 -7 11 -14 20 -30
20 -36 0 -6 -9 -2 -20 8 -11 10 -20 14 -20 10 0 -5 -16 7 -36 26 l-37 34 22
-31 c16 -22 20 -38 16 -57 -9 -33 -15 -34 -44 -3 -24 25 -139 86 -162 86 -8 0
12 -15 44 -32 32 -17 63 -40 68 -50 8 -14 6 -16 -8 -11 -10 4 -38 19 -62 35
-60 38 -75 36 -23 -3 23 -17 42 -33 42 -35 0 -3 -40 -2 -89 1 -56 3 -92 2 -96
-5 -3 -5 -17 -10 -30 -10 -36 0 -176 -22 -172 -27 3 -2 81 1 173 8 172 13 187
12 354 -26 8 -2 19 -4 24 -4 5 -1 2 -9 -5 -18 -11 -15 -11 -16 1 -5 16 14 59
16 78 3 11 -6 8 -12 -10 -27 -13 -11 -27 -26 -31 -34 -4 -8 -15 -26 -24 -40
-13 -18 -6 -15 24 12 38 34 93 68 109 68 3 0 4 -7 0 -15 -5 -14 -2 -14 24 0
36 19 39 19 36 1 -5 -33 -162 -126 -243 -145 -125 -30 -332 37 -542 173 l-53
35 33 4 c22 2 13 5 -26 6 l-60 2 50 23 c28 13 64 34 80 47 83 68 168 109 224
109 14 0 33 5 41 11 9 6 56 9 110 7 77 -3 103 -8 134 -26z m8483 -28 c-3 -3
-12 -4 -19 -1 -8 3 -5 6 6 6 11 1 17 -2 13 -5z m48 -14 c13 -6 15 -9 5 -9 -8
0 -22 4 -30 9 -18 12 -2 12 25 0z m1973 -9 c15 -11 50 -22 77 -26 28 -4 44
-10 37 -12 -26 -10 -132 19 -143 38 -12 24 -5 24 29 0z m672 9 c-20 -13 -33
-13 -25 0 3 6 14 10 23 10 15 0 15 -2 2 -10z m-6653 -34 c44 -14 71 -17 198
-21 72 -2 133 -4 137 -4 12 -2 30 -42 33 -75 2 -18 8 -51 15 -75 10 -39 9 -46
-16 -89 -91 -155 -259 -391 -356 -498 -87 -96 -136 -118 -253 -115 -63 1 -77
-2 -137 -33 -60 -32 -72 -35 -120 -29 -49 6 -89 28 -146 80 -7 7 -25 16 -40
19 -87 19 -112 42 -87 80 9 15 133 144 274 288 141 144 261 270 268 281 12 19
13 19 26 3 8 -10 19 -18 24 -18 18 0 43 66 49 132 4 34 10 68 15 74 9 11 81
11 116 0z m6388 4 c-3 -5 -11 -10 -16 -10 -6 0 -7 5 -4 10 3 6 11 10 16 10 6
0 7 -4 4 -10z m52 4 c-3 -3 -12 -4 -19 -1 -8 3 -5 6 6 6 11 1 17 -2 13 -5z
m58 -4 c-27 -12 -43 -12 -25 0 8 5 22 9 30 9 10 0 8 -3 -5 -9z m-2367 -19 c23
-4 46 -12 50 -15 11 -12 -80 2 -123 18 l-40 15 35 -4 c19 -3 54 -9 78 -14z
m2167 0 c-11 -9 -112 -25 -103 -15 3 3 28 9 55 14 26 4 50 8 53 9 2 0 0 -3 -5
-8z m-10629 -32 c20 -22 23 -28 8 -19 -18 11 -50 50 -41 50 2 0 16 -14 33 -31z
m10476 1 c-42 -26 -61 -26 -31 0 13 10 33 19 44 20 16 0 13 -4 -13 -20z
m-6582 -47 c-11 -17 -11 -17 -6 0 3 10 7 28 7 40 2 22 2 22 6 0 2 -12 -1 -30
-7 -40z m6808 41 c-27 -16 -41 -18 -33 -5 3 5 -9 11 -27 14 -18 2 -7 4 25 3
53 0 56 -1 35 -12z m-2248 -4 c8 -5 11 -10 5 -10 -5 0 -17 5 -25 10 -8 5 -10
10 -5 10 6 0 17 -5 25 -10z m120 -18 c3 -3 -8 -2 -25 2 -16 4 -34 12 -40 17
-5 5 6 4 25 -2 19 -7 37 -14 40 -17z m2005 18 c-3 -5 -21 -10 -40 -10 -36 0
-56 -17 -35 -30 7 -5 2 -9 -17 -13 -37 -7 -39 -3 -13 32 18 27 28 31 66 31 28
0 43 -4 39 -10z m-1968 -26 c-3 -3 -12 -4 -19 -1 -8 3 -5 6 6 6 11 1 17 -2 13
-5z m92 -9 c18 -6 20 -9 10 -16 -20 -12 -37 -11 -19 1 12 8 10 10 -10 9 -14
-1 -34 -1 -45 0 -17 1 -18 3 -5 11 8 5 22 8 30 6 8 -3 26 -8 39 -11z m1936 6
c-13 -12 -156 -54 -162 -47 -3 3 8 8 23 12 16 4 47 15 69 25 42 20 86 26 70
10z m-1885 -32 c0 -6 10 -9 23 -6 12 3 38 -1 57 -8 24 -9 29 -14 15 -15 -16
-1 -14 -4 10 -15 37 -17 29 -19 -14 -4 -25 9 -30 14 -19 21 9 7 6 8 -12 4 -32
-7 -106 14 -88 26 18 11 28 10 28 -3z m-8603 -25 c-3 -3 -12 -4 -19 -1 -8 3
-5 6 6 6 11 1 17 -2 13 -5z m10718 -44 c-3 -5 -18 -10 -33 -9 -24 0 -25 1 -7
9 28 12 47 12 40 0z m-6947 -18 c4 -13 -86 -112 -131 -144 -53 -38 -41 -7 23
57 35 35 66 62 69 60 6 -6 31 15 31 27 0 5 -4 6 -10 3 -5 -3 -10 -1 -10 5 0
15 22 8 28 -8z m5132 3 c19 -7 28 -14 20 -14 -8 0 -28 6 -45 14 -39 17 -21 18
25 0z m-83 -1 c-3 -3 -12 -4 -19 -1 -8 3 -5 6 6 6 11 1 17 -2 13 -5z m1766 -1
c-7 -2 -21 -2 -30 0 -10 3 -4 5 12 5 17 0 24 -2 18 -5z m-623 -33 c-8 -5 -19
-10 -25 -10 -5 0 -3 5 5 10 8 5 20 10 25 10 6 0 3 -5 -5 -10z m-5351 -66 c-17
-27 -28 -40 -25 -29 8 24 49 85 54 81 2 -2 -11 -26 -29 -52z m5371 46 c-8 -5
-19 -10 -25 -10 -5 0 -3 5 5 10 8 5 20 10 25 10 6 0 3 -5 -5 -10z m-243 -16
c-3 -3 -12 -4 -19 -1 -8 3 -5 6 6 6 11 1 17 -2 13 -5z m-8656 -21 c13 -16 12
-17 -3 -4 -17 13 -22 21 -14 21 2 0 10 -8 17 -17z m-467 -33 c6 0 29 -16 51
-35 22 -19 77 -57 122 -85 84 -52 369 -193 458 -226 28 -11 43 -20 33 -22 -9
-2 -30 4 -47 13 -17 8 -31 13 -31 9 0 -3 -12 1 -26 11 -23 15 -180 85 -190 85
-3 0 -2 -5 2 -12 4 -7 3 -8 -5 -4 -6 4 -9 12 -6 17 4 5 -4 9 -17 9 -13 0 -43
9 -67 20 -48 22 -221 142 -286 199 -47 41 -71 75 -30 43 15 -12 33 -22 39 -22z
m3957 3 c-12 -20 -14 -14 -5 12 4 9 9 14 11 11 3 -2 0 -13 -6 -23z m5079 23
c0 -2 -9 -6 -20 -9 -11 -3 -18 -1 -14 4 5 9 34 13 34 5z m-8539 -33 c13 -16
12 -17 -3 -4 -17 13 -22 21 -14 21 2 0 10 -8 17 -17z m8534 -13 c-3 -5 -12
-10 -18 -10 -7 0 -6 4 3 10 19 12 23 12 15 0z m-248 -6 c-3 -3 -12 -4 -19 -1
-8 3 -5 6 6 6 11 1 17 -2 13 -5z m-5807 -11 c0 -12 -214 -223 -226 -223 -12 0
206 229 219 230 4 0 7 -3 7 -7z m70 -7 c0 -2 -8 -10 -17 -17 -16 -13 -17 -12
-4 4 13 16 21 21 21 13z m6275 -26 c-3 -5 -14 -10 -23 -10 -15 0 -15 2 -2 10
20 13 33 13 25 0z m-6354 -17 c-5 -10 -38 -45 -72 -78 l-62 -60 69 78 c71 80
81 89 65 60z m944 -10 c-3 -32 -45 -104 -57 -97 -7 4 -8 3 -4 -4 8 -14 -70
-144 -96 -161 -14 -9 -16 -8 -12 4 4 8 10 15 14 15 4 0 10 8 14 18 3 9 9 24
13 32 6 13 4 13 -13 0 -18 -14 -18 -14 -5 2 7 10 17 16 21 13 9 -6 56 66 52
79 -2 7 66 116 73 116 1 0 1 -8 0 -17z m-4108 1 c-3 -3 -12 -4 -19 -1 -8 3 -5
6 6 6 11 1 17 -2 13 -5z m-114 -31 c-7 -2 -21 -2 -30 0 -10 3 -4 5 12 5 17 0
24 -2 18 -5z m9370 -80 c-7 -2 -21 -2 -30 0 -10 3 -4 5 12 5 17 0 24 -2 18 -5z
m-8339 -63 c-6 -5 -24 21 -24 34 0 6 6 1 14 -10 8 -10 12 -21 10 -24z m7814
23 c-10 -2 -26 -2 -35 0 -10 3 -2 5 17 5 19 0 27 -2 18 -5z m197 -3 c-33 -3
-71 -3 -85 1 -15 4 9 7 60 7 83 -1 84 -1 25 -8z m-6015 -45 c-13 -14 -28 -25
-33 -25 -6 0 0 11 13 25 13 14 28 25 33 25 6 0 0 -11 -13 -25z m5910 21 c0 -2
-7 -7 -16 -10 -8 -3 -12 -2 -9 4 6 10 25 14 25 6z m-7860 -25 c0 -3 3 -17 7
-31 6 -23 5 -24 -11 -11 -9 8 -14 16 -12 19 3 2 1 13 -5 23 -7 15 -6 17 6 13
8 -4 15 -9 15 -13z m-215 -51 c17 -11 26 -20 20 -20 -5 0 -23 9 -40 20 -16 11
-25 20 -20 20 6 0 24 -9 40 -20z m2158 -3 c-2 -4 -13 -5 -22 -2 -22 7 -53 -4
-45 -16 3 -5 0 -9 -5 -9 -13 0 -13 3 -5 24 5 12 17 16 44 14 21 -2 36 -7 33
-11z m3456 -87 c0 -17 -23 33 -33 71 -3 13 3 6 14 -16 11 -22 19 -47 19 -55z
m3561 66 c-5 -14 -23 -43 -39 -66 -16 -23 -28 -47 -25 -55 3 -7 1 -16 -5 -20
-6 -3 -11 1 -11 10 0 9 -5 13 -10 10 -6 -4 -7 -11 -4 -17 5 -7 2 -8 -6 -3 -10
6 -12 4 -7 -9 4 -10 3 -15 -3 -11 -5 3 -15 -6 -23 -21 -13 -25 -14 -26 -19 -6
-5 16 4 31 36 59 22 20 46 45 51 54 19 31 68 99 71 99 2 0 -1 -11 -6 -24z m40
14 c0 -5 -5 -10 -11 -10 -5 0 -7 5 -4 10 3 6 8 10 11 10 2 0 4 -4 4 -10z
m-1476 -10 c-16 -16 -104 -58 -104 -50 0 5 23 20 52 34 56 28 68 32 52 16z
m166 6 c0 -6 -65 -46 -74 -46 -16 0 8 21 37 34 39 18 37 17 37 12z m-531 -20
c-2 -2 -24 -14 -49 -26 -41 -20 -43 -20 -25 -3 12 11 27 23 35 26 17 6 45 9
39 3z m237 -32 c-26 -20 -50 -34 -53 -31 -6 6 75 67 90 67 5 0 -11 -16 -37
-36z m-7251 0 c20 -7 69 -26 150 -58 22 -8 32 -15 22 -16 -10 0 -32 7 -49 16
-17 9 -47 17 -67 18 -20 1 -48 10 -62 19 -14 10 -32 16 -40 14 -8 -2 -10 -2
-6 1 4 2 2 11 -4 19 -11 12 -9 13 12 4 13 -5 33 -13 44 -17z m1705 16 c0 -5
-2 -10 -4 -10 -3 0 -8 5 -11 10 -3 6 -1 10 4 10 6 0 11 -4 11 -10z m1070 0 c0
-5 -8 -10 -17 -10 -15 0 -16 2 -3 10 19 12 20 12 20 0z m19 -17 c-32 -43 -59
-54 -59 -25 0 12 3 13 8 4 6 -9 14 -6 32 13 27 29 39 33 19 8z m-1139 -3 c13
-8 13 -10 -2 -10 -9 0 -20 5 -23 10 -8 13 5 13 25 0z m5505 -55 c-16 -13 -25
-24 -19 -25 5 0 16 6 24 13 8 6 6 2 -3 -9 -10 -12 -39 -30 -65 -39 -26 -10
-76 -33 -111 -52 -35 -18 -66 -31 -69 -29 -9 9 19 35 36 33 9 0 36 11 59 26
24 15 47 27 52 27 5 0 13 4 16 10 3 6 -1 7 -9 4 -9 -3 -16 -3 -16 0 0 5 115
63 130 65 3 1 -8 -10 -25 -24z m205 10 c-7 -8 -17 -15 -23 -15 -6 0 -2 7 9 15
25 19 30 19 14 0z m-4655 -5 c4 -6 16 -8 28 -5 17 5 19 4 7 -4 -13 -9 -12 -12
5 -25 11 -9 15 -16 10 -16 -6 0 -25 14 -43 30 -18 17 -29 30 -23 30 5 0 13 -5
16 -10z m4371 -9 c-7 -11 -145 -78 -178 -86 -18 -5 -25 -12 -21 -21 4 -12 8
-12 21 -2 13 11 14 10 5 -6 -11 -21 -94 -59 -175 -80 -29 -8 -89 -29 -133 -48
-45 -19 -87 -32 -94 -30 -10 3 61 63 133 111 12 8 32 22 46 31 14 9 76 29 139
44 62 15 143 42 179 61 71 35 87 40 78 26z m-125 -15 c-6 -8 -24 -19 -39 -25
-37 -15 -214 -53 -219 -47 -6 5 64 26 87 26 32 0 136 32 150 45 18 19 36 20
21 1z m-5601 -4 c0 -5 -15 -9 -32 -9 -27 -1 -29 1 -13 7 27 11 45 12 45 2z
m1345 -22 c8 -13 -1 -13 -26 0 -10 6 -19 15 -19 21 0 11 35 -5 45 -21z m-2507
11 c10 -6 9 -10 -7 -14 -21 -5 -36 5 -24 17 8 8 15 7 31 -3z m65 2 c-7 -2 -21
-2 -30 0 -10 3 -4 5 12 5 17 0 24 -2 18 -5z m1272 -2 c-9 -15 -67 -42 -74 -35
-3 4 0 9 7 11 7 3 18 11 25 19 13 15 51 19 42 5z m5690 -11 c-3 -5 -11 -10
-16 -10 -6 0 -7 5 -4 10 3 6 11 10 16 10 6 0 7 -4 4 -10z m-6757 -24 c64 -13
139 -27 167 -31 27 -3 52 -9 55 -12 14 -15 -258 28 -335 53 -62 20 -15 16 113
-10z m-219 2 c11 -10 13 -10 7 0 -4 6 -2 12 3 12 20 0 136 -43 139 -51 2 -5
20 -10 40 -10 21 -1 51 -5 67 -9 22 -6 14 -7 -30 -5 -33 1 -75 10 -92 19 -31
15 -149 24 -128 8 6 -4 11 -14 10 -22 0 -11 -20 -15 -95 -17 -52 -1 -106 -6
-120 -9 -14 -4 -30 -6 -37 -5 -6 1 -14 -3 -18 -9 -3 -5 -13 -10 -22 -10 -35 0
65 57 122 69 33 7 62 16 65 20 4 5 55 27 71 30 3 1 11 -5 18 -11z m1771 -23
c0 -10 -40 9 -44 21 -4 11 0 11 19 -2 14 -9 25 -18 25 -19z m-1987 -2 c-7 -2
-19 -2 -25 0 -7 3 -2 5 12 5 14 0 19 -2 13 -5z m1216 -14 c-22 -14 -33 -10
-19 6 7 8 17 12 22 9 6 -4 5 -10 -3 -15z m1338 15 c-3 -3 -12 -4 -19 -1 -8 3
-5 6 6 6 11 1 17 -2 13 -5z m369 -41 c-6 -7 -56 27 -56 39 0 5 14 0 31 -12 16
-12 28 -24 25 -27z m3703 34 c-2 -2 -30 -18 -61 -36 -32 -18 -58 -34 -58 -36
0 -9 66 9 88 23 12 8 24 13 26 11 6 -6 -185 -140 -221 -156 -47 -19 -41 -2 7
21 22 11 40 23 40 28 0 17 -145 -67 -154 -89 -7 -15 -22 -22 -55 -26 -25 -2
-55 -8 -66 -13 -18 -7 -18 -6 -6 9 17 21 20 21 -58 -3 -67 -20 -70 -15 -11 16
19 11 49 29 65 41 17 11 46 28 65 36 19 9 28 16 19 16 -28 2 -82 -21 -135 -55
-63 -42 -115 -64 -151 -64 -15 0 -39 -10 -53 -21 l-25 -20 34 6 c22 5 31 4 27
-3 -3 -6 2 -12 11 -14 15 -3 14 -5 -5 -10 -12 -3 -20 -2 -16 3 7 12 -2 11 -51
-2 -22 -6 -53 -13 -70 -14 -39 -4 -136 -39 -171 -62 -24 -15 -27 -16 -22 -2 5
14 -3 16 -53 18 -33 1 -69 -3 -80 -10 -28 -14 -39 -1 -15 17 20 14 20 14 0 14
-19 1 -19 1 0 15 24 18 10 19 -21 2 -12 -7 -21 -16 -20 -22 1 -5 -11 -12 -28
-13 -16 -2 -34 -7 -40 -12 -5 -4 -30 -8 -54 -7 -32 0 -49 -6 -60 -19 -14 -16
-30 -19 -116 -19 -55 1 -108 4 -117 9 -9 4 -26 3 -37 -4 -18 -9 -21 -8 -21 10
0 18 6 20 78 20 42 1 123 5 178 9 97 8 105 11 160 49 43 30 79 45 129 56 39 8
62 15 52 15 -11 1 -15 5 -11 13 5 7 2 9 -7 6 -8 -3 -25 -8 -39 -12 -17 -4 -14
-1 8 9 18 9 37 13 42 10 13 -8 111 15 154 37 48 25 38 5 -12 -22 -36 -19 -36
-20 -7 -14 28 6 67 20 125 48 14 7 36 9 50 5 23 -5 23 -6 5 -11 -11 -3 -2 -4
21 -1 39 4 113 25 203 58 24 9 46 13 49 10 3 -3 -9 -10 -26 -16 -18 -6 -29
-16 -25 -22 3 -5 1 -7 -5 -3 -6 3 -25 -8 -44 -25 -46 -43 -13 -32 93 31 45 28
86 50 91 50 5 0 7 4 4 8 -5 9 143 76 151 68 3 -3 -10 -12 -28 -21 -48 -22 -7
-11 75 19 37 14 83 27 101 29 18 2 48 13 67 24 18 11 35 18 37 17 2 -2 2 -6 0
-7z m1985 -2 c-4 -8 -13 -15 -21 -15 -8 0 -12 -4 -9 -9 7 -11 -32 -46 -41 -37
-4 3 9 22 27 41 36 37 53 45 44 20z m-10486 -10 c27 -4 115 -45 108 -52 -2 -2
-22 5 -44 16 l-39 20 27 -52 c24 -46 60 -141 60 -156 0 -3 -15 20 -33 51 -47
83 -69 110 -80 95 -5 -7 -6 -4 -2 9 4 16 -2 28 -25 47 -33 29 -39 43 -12 32 9
-4 27 -9 40 -10z m3509 9 c-3 -3 -12 -4 -19 -1 -8 3 -5 6 6 6 11 1 17 -2 13
-5z m-525 -36 c-7 -7 -12 -8 -12 -2 0 14 12 26 19 19 2 -3 -1 -11 -7 -17z
m-1175 -6 c-10 -10 -17 -23 -17 -29 0 -9 -72 -42 -103 -47 -6 -1 -18 -5 -25
-10 -7 -4 -16 -5 -19 -2 -10 10 19 36 40 36 26 0 87 22 87 31 0 11 -112 -22
-130 -37 -16 -14 -84 -44 -97 -44 -4 0 -1 4 7 10 36 23 -3 16 -90 -17 -95 -35
-143 -61 -80 -43 44 13 60 -3 20 -20 -17 -7 -33 -10 -36 -7 -3 3 -21 -1 -39
-9 -19 -8 -54 -14 -77 -13 l-43 0 40 19 c22 10 68 28 103 40 34 13 62 26 62
31 0 10 -54 1 -95 -16 -16 -7 -57 -16 -90 -19 -33 -3 -71 -8 -84 -12 -17 -5
-22 -4 -17 4 4 6 -19 2 -50 -8 -72 -25 -83 -25 -54 0 20 18 34 22 56 19 4 0
10 3 13 9 3 5 39 13 80 19 59 8 74 7 78 -4 4 -11 8 -11 20 -2 8 7 63 25 122
40 60 15 120 35 135 44 16 10 52 19 93 21 38 2 91 10 118 18 28 7 59 14 69 15
18 1 18 0 3 -17z m827 9 c3 -4 -6 -6 -19 -3 -14 2 -25 6 -25 8 0 8 39 4 44 -5z
m-191 -8 c-7 -2 -21 -2 -30 0 -10 3 -4 5 12 5 17 0 24 -2 18 -5z m234 1 c-3
-3 -12 -4 -19 -1 -8 3 -5 6 6 6 11 1 17 -2 13 -5z m1248 -4 c3 -5 -1 -10 -10
-10 -9 0 -13 5 -10 10 3 6 8 10 10 10 2 0 7 -4 10 -10z m197 -13 c-12 -13 -22
-29 -22 -35 0 -7 -4 -12 -9 -12 -5 0 -12 -13 -16 -30 -4 -16 -11 -30 -17 -30
-6 0 -7 8 -3 18 4 9 10 25 12 35 3 9 8 17 12 17 4 0 15 14 24 30 10 17 23 30
29 30 6 0 2 -10 -10 -23z m-1841 -2 c-1 -6 20 -13 46 -17 35 -5 29 -5 -22 -2
-38 2 -95 7 -125 11 l-55 8 70 6 c84 6 87 6 86 -6z m516 9 c-3 -3 -12 -4 -19
-1 -8 3 -5 6 6 6 11 1 17 -2 13 -5z m403 -9 c0 -8 -7 -15 -15 -15 -16 0 -20
12 -8 23 11 12 23 8 23 -8z m1696 -13 c-4 -3 -14 2 -24 12 -16 18 -16 18 6 6
13 -6 21 -14 18 -18z m-2523 11 c-7 -2 -19 -2 -25 0 -7 3 -2 5 12 5 14 0 19
-2 13 -5z m1917 4 c0 -2 -10 -12 -22 -23 l-23 -19 19 23 c18 21 26 27 26 19z
m-4186 -22 c11 -8 17 -15 13 -15 -3 0 3 -26 14 -57 26 -76 19 -88 -11 -21 -13
29 -33 65 -43 81 -21 30 -6 37 27 12z m2003 9 c-3 -3 -12 -4 -19 -1 -8 3 -5 6
6 6 11 1 17 -2 13 -5z m310 0 c-3 -3 -12 -4 -19 -1 -8 3 -5 6 6 6 11 1 17 -2
13 -5z m250 0 c-3 -3 -12 -4 -19 -1 -8 3 -5 6 6 6 11 1 17 -2 13 -5z m161 -1
c-10 -2 -28 -2 -40 0 -13 2 -5 4 17 4 22 1 32 -1 23 -4z m2197 -21 c-3 -3 0
-11 6 -19 9 -9 8 -13 0 -13 -6 0 -16 12 -21 26 -14 35 -13 39 5 24 9 -7 13
-15 10 -18z m-2480 3 c39 -4 77 -11 85 -16 16 -9 -70 -3 -147 11 -23 4 -55 6
-70 4 -28 -4 -28 -4 -3 5 14 5 34 8 45 6 11 -2 52 -7 90 -10z m905 5 c0 -5 -2
-10 -4 -10 -3 0 -8 5 -11 10 -3 6 -1 10 4 10 6 0 11 -4 11 -10z m3966 -6 c19
-15 19 -15 -1 -6 -11 5 -27 12 -35 15 -13 5 -13 6 1 6 8 1 24 -6 35 -15z m713
12 c-15 -13 -49 -25 -49 -17 0 5 8 12 18 14 24 6 36 8 31 3z m-6304 -26 c-3
-5 -14 -10 -23 -10 -15 0 -15 2 -2 10 20 13 33 13 25 0z m1141 -26 c-4 -14 -9
-24 -12 -21 -3 2 -2 17 2 31 3 15 9 25 11 22 3 -3 2 -17 -1 -32z m4495 19 c13
-16 12 -17 -3 -4 -10 7 -18 15 -18 17 0 8 8 3 21 -13z m-7846 -27 c61 -15 135
-31 165 -37 69 -14 199 -56 216 -70 24 -19 -2 -45 -68 -68 -107 -38 -168 -64
-168 -72 0 -5 30 3 68 17 130 50 226 76 192 54 -13 -9 -13 -11 0 -19 19 -13
-12 -25 -146 -58 l-102 -25 -82 43 c-71 37 -94 56 -164 136 -44 51 -83 93 -86
93 -3 0 -16 10 -30 21 l-25 20 60 -4 c33 -2 110 -16 170 -31z m2648 27 c-7 -2
-21 -2 -30 0 -10 3 -4 5 12 5 17 0 24 -2 18 -5z m-2043 -53 c11 -21 20 -43 20
-47 0 -10 -49 69 -50 80 0 17 11 5 30 -33z m2415 16 l40 -16 -40 6 c-22 3 -93
8 -157 12 -64 4 -120 10 -124 15 -15 15 239 0 281 -17z m772 18 c-3 -3 -12 -4
-19 -1 -8 3 -5 6 6 6 11 1 17 -2 13 -5z m-1882 -23 c-12 -10 -75 -32 -75 -25
0 6 60 33 75 34 6 0 6 -3 0 -9z m100 -1 c-3 -5 -12 -10 -18 -10 -7 0 -6 4 3
10 19 12 23 12 15 0z m1138 3 c-13 -2 -33 -2 -45 0 -13 2 -3 4 22 4 25 0 35
-2 23 -4z m1229 -49 c-7 -35 -11 -39 -42 -42 -26 -2 -31 0 -20 8 13 8 12 10
-3 10 -10 0 -16 4 -13 9 3 4 -6 6 -20 3 -16 -3 -30 1 -35 9 -12 19 -11 39 2
39 5 0 7 -5 3 -12 -5 -8 6 -9 41 -5 26 4 56 7 66 7 11 0 19 7 20 18 0 9 3 12
5 6 2 -6 1 -28 -4 -50z m271 36 c-3 -11 -9 -20 -14 -20 -10 0 -12 24 -2 33 13
13 21 7 16 -13z m201 5 c-4 -8 -10 -15 -15 -15 -4 0 -6 7 -3 15 4 8 10 15 15
15 4 0 6 -7 3 -15z m3156 -6 c-43 -37 -104 -67 -145 -72 l-40 -6 39 13 c54 17
55 32 5 40 -39 6 -41 8 -23 20 27 19 50 24 124 25 l65 0 -25 -20z m-4752 5
c24 -5 29 -11 28 -30 -1 -16 -6 -22 -16 -19 -8 2 -53 10 -99 16 -68 11 -79 14
-57 20 15 4 38 4 49 0 27 -9 59 -3 52 10 -7 11 1 11 43 3z m872 -4 c-12 -8
-10 -10 8 -10 13 0 20 -4 17 -10 -7 -11 -68 -14 -79 -3 -3 4 6 12 21 19 34 15
54 17 33 4z m-3540 -65 c0 -5 -9 4 -20 20 -11 17 -20 35 -20 40 0 6 9 -3 20
-20 11 -16 20 -34 20 -40z m3624 30 c7 -29 7 -29 -13 -11 -16 15 -18 22 -10
33 14 16 14 16 23 -22z m-424 9 c0 -2 -7 -4 -15 -4 -8 0 -15 4 -15 10 0 5 7 7
15 4 8 -4 15 -8 15 -10z m652 -19 c-5 -18 -11 -25 -15 -18 -4 7 -2 21 5 32 16
26 19 22 10 -14z m-415 19 c-3 -3 -12 -4 -19 -1 -8 3 -5 6 6 6 11 1 17 -2 13
-5z m-1264 -11 c-7 -2 -21 -2 -30 0 -10 3 -4 5 12 5 17 0 24 -2 18 -5z m1424
-12 c10 -10 24 -20 32 -23 7 -2 -42 -4 -110 -5 -124 -1 -127 12 -4 17 33 1 51
5 41 7 -15 4 -16 7 -5 14 20 13 26 11 46 -10z m453 15 c0 -3 -4 -8 -10 -11 -5
-3 -10 -1 -10 4 0 6 5 11 10 11 6 0 10 -2 10 -4z m-3044 -21 c-17 -13 -87 -23
-75 -10 4 4 68 21 89 24 3 0 -4 -6 -14 -14z m3502 -16 c11 -18 9 -19 -30 -20
-24 -1 -55 -2 -70 -3 -40 -3 -34 12 13 33 46 21 70 18 87 -10z m-306 -11 c-7
-7 -12 -8 -12 -2 0 14 12 26 19 19 2 -3 -1 -11 -7 -17z m754 -7 c51 -6 104
-15 120 -21 16 -6 51 -11 78 -12 27 0 61 -4 75 -10 57 -22 138 -39 176 -37 22
2 49 -2 60 -9 18 -10 17 -12 -15 -13 -34 -1 -34 -1 13 -14 26 -7 59 -20 72
-29 13 -9 32 -16 41 -16 10 0 14 -3 10 -7 -15 -15 -231 -22 -260 -9 -14 7 -17
6 -12 -3 6 -9 -1 -11 -26 -7 -18 3 -73 8 -121 12 -58 4 -109 14 -147 30 -33
13 -75 24 -94 24 -18 0 -51 7 -72 16 -38 16 -212 22 -234 9 -5 -3 -40 0 -77 6
-66 12 -67 12 -38 23 40 15 78 48 64 57 -13 8 125 1 161 -8 22 -6 21 -7 -15
-13 l-40 -7 36 -2 c19 0 39 3 45 8 5 5 31 6 59 1 28 -4 73 -5 100 -2 l50 6
-55 12 c-59 14 -77 11 -39 -6 l24 -11 -25 7 c-14 3 -48 11 -76 19 -29 7 -64
10 -79 7 -20 -3 -26 -2 -20 7 8 14 95 11 261 -8z m81 13 c-3 -3 -12 -4 -19 -1
-8 3 -5 6 6 6 11 1 17 -2 13 -5z m46 -11 c-7 -2 -19 -2 -25 0 -7 3 -2 5 12 5
14 0 19 -2 13 -5z m123 -2 c-3 -4 -29 -8 -58 -8 -45 0 -48 1 -18 6 59 11 81
11 76 2z m91 -6 c14 -14 13 -15 -13 -9 -39 9 -54 24 -25 24 12 0 29 -7 38 -15z
m-4434 -2 c-7 -2 -19 -2 -25 0 -7 3 -2 5 12 5 14 0 19 -2 13 -5z m4536 -9 c10
-9 -35 -3 -49 6 -11 8 -7 9 15 4 17 -4 32 -8 34 -10z m1086 6 c-11 -5 -51 -8
-90 -7 l-70 1 75 6 c41 4 82 7 90 7 8 1 6 -2 -5 -7z m-5749 -15 c-20 -15 -36
-19 -36 -10 0 5 38 23 50 24 3 0 -4 -6 -14 -14z m3464 2 c0 -7 -6 -21 -13 -32
-19 -26 -30 -3 -11 23 17 25 24 28 24 9z m326 -2 c-11 -8 -35 -15 -53 -15 -23
0 -33 -5 -33 -15 0 -8 -4 -15 -9 -15 -16 0 -41 12 -41 20 0 13 59 33 84 28 14
-3 31 -1 38 3 22 15 34 9 14 -6z m-923 -2 c-7 -2 -21 -2 -30 0 -10 3 -4 5 12
5 17 0 24 -2 18 -5z m1860 0 c-7 -2 -19 -2 -25 0 -7 3 -2 5 12 5 14 0 19 -2
13 -5z m635 0 c-10 -2 -26 -2 -35 0 -10 3 -2 5 17 5 19 0 27 -2 18 -5z m582
-3 c0 -5 -11 -10 -24 -10 -13 0 -31 -3 -40 -6 -9 -3 -16 -1 -16 4 0 6 15 13
33 15 17 2 35 5 40 5 4 1 7 -2 7 -8z m287 4 c-3 -3 -12 -4 -19 -1 -8 3 -5 6 6
6 11 1 17 -2 13 -5z m-6284 -19 c1 -5 -14 -14 -33 -20 -19 -5 -39 -13 -45 -16
-17 -10 -116 -32 -121 -26 -3 3 19 13 48 23 29 9 71 25 93 35 42 19 55 20 58
4z m4614 9 c-3 -3 -12 -4 -19 -1 -8 3 -5 6 6 6 11 1 17 -2 13 -5z m896 -1
c-13 -2 -35 -2 -50 0 -16 2 -5 4 22 4 28 0 40 -2 28 -4z m892 -18 c-27 -14
-67 -36 -88 -49 -39 -24 -47 -25 -297 -45 -125 -11 -381 -5 -467 10 -34 6 -66
8 -72 5 -5 -4 -12 -2 -16 4 -4 7 40 10 130 10 131 0 219 12 231 32 4 6 -8 7
-30 3 -24 -5 -36 -3 -36 4 0 6 11 11 24 11 13 0 32 3 42 7 13 5 15 3 9 -7 -8
-13 9 -11 68 6 10 3 17 0 17 -7 0 -10 3 -10 12 -1 7 7 22 12 34 12 13 0 26 5
29 10 3 6 13 10 21 10 9 0 12 -5 8 -12 -5 -8 -2 -9 12 -4 19 7 235 8 304 2 20
-2 47 2 60 10 14 7 32 13 40 14 8 0 -7 -11 -35 -25z m642 9 c-3 -3 -12 -4 -19
-1 -8 3 -5 6 6 6 11 1 17 -2 13 -5z m-2302 -14 c3 -6 -1 -7 -9 -4 -18 7 -21
14 -7 14 6 0 13 -4 16 -10z m-4905 -9 c0 -5 -14 -13 -32 -16 -17 -4 -52 -18
-77 -30 -33 -17 -50 -21 -63 -14 -10 6 -23 7 -28 4 -5 -3 -11 -1 -14 4 -3 5 7
11 22 14 29 6 185 44 190 46 1 0 2 -3 2 -8z m5070 -1 c-8 -5 -22 -10 -30 -10
-13 0 -13 1 0 10 8 5 22 10 30 10 13 0 13 -1 0 -10z m563 3 c-7 -2 -19 -2 -25
0 -7 3 -2 5 12 5 14 0 19 -2 13 -5z m-5926 -9 c-3 -3 -12 -4 -19 -1 -8 3 -5 6
6 6 11 1 17 -2 13 -5z m5310 0 c-3 -3 -12 -4 -19 -1 -8 3 -5 6 6 6 11 1 17 -2
13 -5z m577 -22 c5 -3 1 -9 -10 -13 -13 -5 -14 -8 -4 -8 20 -1 46 -40 28 -42
-7 -1 -17 -1 -21 0 -4 1 -10 -7 -14 -16 -10 -29 -45 -63 -64 -63 -10 0 -25 -3
-34 -6 -13 -6 -14 -9 -3 -16 8 -5 -5 -7 -37 -6 -49 3 -50 4 -78 58 -24 44 -27
57 -17 73 9 16 9 18 -7 15 -10 -2 -19 -13 -21 -24 -3 -18 -10 -21 -55 -22 -29
0 -79 -3 -112 -6 -33 -3 -51 -2 -40 1 17 5 14 9 -20 24 l-40 18 32 0 c18 1 54
-4 81 -9 54 -12 143 -2 149 17 3 8 -12 11 -49 9 -29 -2 -37 -1 -18 1 19 2 39
9 45 14 13 13 38 11 29 -3 -5 -8 -2 -9 10 -5 10 4 25 7 34 8 11 1 8 4 -8 10
-15 5 27 6 105 3 72 -4 134 -9 139 -12z m-5851 1 c-7 -2 -21 -2 -30 0 -10 3
-4 5 12 5 17 0 24 -2 18 -5z m5402 -15 c13 -5 -7 -7 -55 -5 -42 2 -85 9 -95
15 -16 9 -4 10 55 5 41 -3 84 -10 95 -15z m82 16 c-3 -3 -12 -4 -19 -1 -8 3
-5 6 6 6 11 1 17 -2 13 -5z m-5479 -24 c-10 -6 -25 -7 -40 -1 -20 9 -18 10 17
10 31 0 36 -2 23 -9z m4400 3 c-10 -2 -28 -2 -40 0 -13 2 -5 4 17 4 22 1 32
-1 23 -4z m-4809 -19 c-12 -15 -10 -16 20 -9 21 4 31 3 28 -3 -4 -5 -55 -12
-114 -15 -59 -3 -118 -9 -130 -13 -13 -3 -23 -2 -23 3 0 5 35 15 78 22 62 10
121 22 151 30 2 1 -3 -6 -10 -15z m5116 -4 c8 -13 -5 -13 -25 0 -13 8 -13 10
2 10 9 0 20 -4 23 -10z m75 -30 c8 -5 11 -10 5 -10 -5 0 -17 5 -25 10 -8 5
-10 10 -5 10 6 0 17 -5 25 -10z m1441 0 c34 0 46 -4 46 -15 0 -20 -43 -31 -62
-15 -8 6 -22 9 -32 6 -10 -2 -85 -8 -168 -11 -82 -3 -151 -10 -153 -16 -2 -5
-11 -9 -20 -9 -13 0 -14 2 -4 9 8 4 12 10 11 12 -2 2 1 12 7 21 11 20 48 24
209 21 66 -1 141 -3 166 -3z m-6225 -29 c-3 -4 -20 -14 -38 -22 -18 -7 -51
-26 -72 -41 -21 -15 -43 -28 -48 -28 -5 0 -32 -16 -61 -35 -28 -19 -60 -35
-69 -35 -10 0 -18 -4 -18 -9 0 -5 -19 -18 -42 -30 -24 -12 -63 -34 -88 -50
-26 -15 -69 -36 -98 -45 -29 -10 -50 -21 -48 -25 3 -4 -7 -7 -22 -6 -15 0 -42
-7 -60 -17 -36 -20 -52 -23 -52 -10 0 5 6 9 13 9 6 0 28 7 47 15 19 8 55 24
80 34 25 10 106 52 180 94 74 42 153 86 175 97 22 11 78 41 125 67 85 45 106
54 96 37z m5491 3 c-3 -3 -12 -4 -19 -1 -8 3 -5 6 6 6 11 1 17 -2 13 -5z
m-259 -31 c-46 -15 -98 -12 -98 7 0 6 31 10 73 9 l72 0 -47 -16z m142 13 c0
-9 -30 -14 -35 -6 -4 6 3 10 14 10 12 0 21 -2 21 -4z m86 -5 c-6 -8 -66 -21
-66 -14 0 5 43 22 58 22 7 1 11 -3 8 -8z m964 -12 c18 -11 -46 0 -75 13 -13 5
-7 6 20 2 22 -3 47 -10 55 -15z m143 9 c-2 -5 -25 -7 -51 -7 -41 1 -43 2 -17
8 38 9 74 8 68 -1z m-552 -9 c-47 -4 -91 -4 -99 0 -7 4 31 8 85 8 l98 1 -84
-9z m116 5 c-3 -3 -12 -4 -19 -1 -8 3 -5 6 6 6 11 1 17 -2 13 -5z m-6158 -17
c-2 -1 -13 -9 -24 -17 -19 -14 -19 -14 -6 3 7 9 18 17 24 17 6 0 8 -1 6 -3z
m8541 -31 c0 -2 -21 -11 -47 -20 -51 -17 -51 -8 0 11 35 13 47 15 47 9z m-174
-27 c0 -14 -16 -31 -48 -52 -45 -30 -59 -47 -39 -47 4 0 25 11 45 25 21 14 41
23 45 21 4 -3 31 1 59 9 29 7 50 10 47 5 -3 -4 -15 -10 -27 -13 -13 -3 -59
-19 -103 -35 -70 -26 -84 -35 -113 -76 -19 -25 -29 -46 -23 -46 6 0 8 -7 5
-15 -4 -8 -10 -13 -14 -10 -10 6 -25 -54 -16 -62 3 -3 10 5 15 18 9 22 10 23
10 3 1 -12 -8 -32 -18 -46 -11 -13 -22 -40 -24 -59 -3 -19 -4 -2 -2 36 4 113
52 216 148 319 24 25 45 46 48 46 3 0 5 -9 5 -21z m356 -67 l18 -67 -6 59 c-3
33 -8 66 -10 75 -2 9 4 0 13 -19 12 -24 17 -56 17 -105 -1 -58 -7 -79 -32
-125 -69 -122 -199 -226 -363 -290 -57 -23 -116 -48 -131 -56 -14 -7 -28 -14
-30 -14 -4 0 -2 49 4 100 2 16 -2 25 -11 25 -8 0 -17 9 -22 20 -12 30 -10 45
4 43 8 -2 12 10 11 40 -1 23 3 42 8 42 5 0 6 -5 2 -11 -4 -7 -1 -10 7 -7 8 3
16 13 17 24 6 28 53 74 76 74 20 -1 20 -2 4 -14 -28 -21 -21 -26 15 -11 17 8
31 19 30 25 -2 5 1 10 7 10 6 0 10 -8 10 -17 0 -15 2 -16 10 -3 5 8 10 10 10
3 0 -6 -20 -36 -45 -66 -46 -57 -142 -233 -132 -243 3 -3 13 9 23 28 18 35
143 228 148 228 1 0 1 -15 0 -32 -3 -27 -1 -24 8 10 12 48 138 258 153 255 5
-1 15 -19 22 -40 l13 -38 -4 43 c-5 55 20 59 29 5 3 -21 10 -56 14 -78 8 -38
9 -39 10 -8 0 17 -4 66 -10 109 -7 54 -7 80 0 87 8 8 11 4 11 -13 0 -13 3 -20
7 -16 4 4 15 -10 25 -31 13 -31 17 -34 17 -15 1 13 -4 32 -10 44 -15 28 -6 31
21 6 l23 -22 -6 34 c-12 56 5 24 25 -48z m-286 49 c-3 -5 -17 -11 -32 -14 -29
-5 -20 9 11 16 11 3 21 5 23 6 2 0 1 -3 -2 -8z m64 -56 c-7 -8 -19 -15 -27
-15 -8 0 -29 -6 -46 -14 -77 -34 -150 -57 -138 -43 6 8 24 19 39 25 36 14 134
44 149 46 7 1 16 5 19 9 14 13 16 7 4 -8z m-8275 -5 c-9 -14 19 -12 33 2 8 8
12 8 12 1 0 -15 -29 -25 -53 -17 -13 4 -17 2 -13 -5 4 -6 3 -11 -3 -11 -6 0
-8 -6 -5 -14 3 -9 -12 -31 -36 -55 -24 -23 -43 -41 -44 -41 -7 0 8 67 18 79
11 15 86 71 93 71 2 0 1 -4 -2 -10z m-1440 -55 c36 -10 69 -26 83 -40 24 -26
22 -31 -6 -16 -30 15 -74 23 -67 11 10 -15 -6 -12 -73 15 -63 25 -122 33 -122
15 0 -5 -7 -6 -17 -3 -11 4 -14 3 -9 -6 5 -7 15 -10 23 -7 15 6 147 -56 158
-74 10 -17 -13 -11 -63 15 -26 14 -54 25 -62 25 -8 -1 2 -10 23 -21 50 -26 43
-33 -14 -14 -39 13 -42 13 -25 0 11 -8 24 -15 29 -15 4 0 6 -4 3 -9 -4 -5 0
-12 6 -14 7 -3 -2 -6 -20 -6 -18 -1 -43 4 -55 10 -21 12 -22 11 -4 -8 11 -13
27 -19 45 -17 27 4 27 4 -2 -6 -41 -13 -117 -15 -207 -6 -50 6 -83 5 -95 -2
-15 -9 -11 -10 21 -7 47 4 114 -13 95 -25 -7 -4 -40 -5 -75 -3 -48 4 -68 2
-89 -12 -29 -19 -29 -32 1 -17 10 5 43 12 73 15 l55 6 -45 -15 c-25 -8 -59
-21 -77 -29 -27 -13 -93 -21 -93 -11 0 10 166 169 204 195 114 79 274 109 401
76z m9655 -34 c-29 -42 -36 -39 -8 3 13 19 24 33 26 31 3 -2 -6 -18 -18 -34z
m-9700 -23 c66 -36 91 -58 35 -31 -134 64 -149 72 -120 66 17 -3 55 -19 85
-35z m1638 -23 c11 -27 29 -77 38 -110 10 -33 19 -52 21 -43 3 9 -5 50 -16 91
-12 40 -21 84 -20 98 1 21 2 20 16 -11 9 -19 21 -55 28 -80 7 -25 14 -36 14
-25 1 11 -4 37 -10 58 -6 22 -8 41 -5 44 2 3 10 -15 17 -38 17 -64 -3 -205
-42 -285 -30 -63 -99 -132 -197 -199 -52 -34 -122 -101 -122 -115 0 -5 -4 -10
-10 -10 -5 0 -10 10 -10 22 0 30 -28 104 -57 150 -34 55 -47 129 -40 230 5 73
11 98 37 147 35 66 90 135 86 110 -1 -10 -8 -24 -15 -33 -12 -14 -12 -16 3
-10 19 7 21 -7 4 -24 -19 -19 3 -14 40 8 39 24 42 24 42 5 0 -8 -6 -15 -14
-15 -15 0 -110 -70 -103 -77 3 -2 29 11 58 30 80 51 112 64 70 30 -57 -47
-133 -123 -123 -123 5 0 16 7 23 16 12 15 125 94 134 94 2 0 -3 -20 -12 -46
-9 -26 -27 -54 -44 -66 -36 -27 -39 -47 -4 -24 26 17 26 17 19 -11 -4 -15 -27
-92 -53 -170 -25 -79 -44 -143 -40 -143 10 0 109 262 109 288 0 7 9 32 20 54
11 23 20 47 20 52 0 6 10 31 21 56 l20 45 21 -25 20 -25 -6 55 -7 55 22 -40
c12 -22 28 -60 35 -85 9 -33 12 -38 13 -19 1 14 -5 48 -13 75 -34 119 -29 134
12 39z m7999 39 c-3 -3 -12 -4 -19 -1 -8 3 -5 6 6 6 11 1 17 -2 13 -5z m-8118
-36 c-15 -30 -24 -38 -16 -15 4 10 1 17 -6 18 -9 0 14 14 31 18 1 1 -3 -9 -9
-21z m-39 -2 c0 -2 -7 -7 -16 -10 -8 -3 -12 -2 -9 4 6 10 25 14 25 6z m8159 0
c-2 -2 -15 -9 -29 -16 -23 -12 -24 -12 -11 3 7 10 20 17 29 17 8 0 13 -2 11
-4z m21 -17 c-7 -11 -14 -18 -17 -15 -3 3 0 12 7 21 18 21 23 19 10 -6z
m-9115 -29 c-27 -12 -43 -12 -25 0 8 5 22 9 30 9 10 0 8 -3 -5 -9z m6075 5 c0
-2 -10 -9 -22 -15 -22 -11 -22 -10 -4 4 21 17 26 19 26 11z m-6060 -19 c0 -3
-4 -8 -10 -11 -5 -3 -10 -1 -10 4 0 6 5 11 10 11 6 0 10 -2 10 -4z m8000 -16
c0 -5 -8 -10 -17 -10 -15 0 -16 2 -3 10 19 12 20 12 20 0z m-2028 -28 c-15
-15 -29 -26 -31 -25 -6 4 41 53 50 53 4 0 -4 -13 -19 -28z m-6449 -16 c-3 -6
-23 -31 -43 -56 -20 -25 -42 -56 -49 -70 l-12 -25 20 25 c69 87 108 128 120
129 10 1 7 -8 -10 -26 -18 -21 -15 -20 12 5 79 73 44 9 -50 -90 -30 -32 -50
-58 -45 -58 9 0 66 55 133 128 16 17 35 32 43 32 7 0 2 -10 -13 -23 -42 -36
-51 -53 -30 -53 10 0 17 5 15 11 -4 11 74 70 82 62 3 -3 -8 -15 -25 -28 -38
-28 -42 -48 -5 -24 15 9 23 12 20 6 -15 -24 14 -9 39 20 14 17 28 29 31 26 12
-11 -113 -125 -161 -147 -27 -13 -53 -22 -57 -22 -4 1 -27 -6 -50 -16 -34 -13
-71 -17 -168 -16 -115 0 -132 3 -205 31 -93 36 -175 74 -175 83 0 14 231 90
278 91 21 0 55 4 77 8 62 13 236 11 228 -3z m8477 0 c0 -2 -11 -6 -25 -8 -13
-3 -22 -1 -19 3 5 9 44 13 44 5z m-60 -28 c0 -8 -23 -12 -53 -10 -10 1 -15 -3
-12 -8 3 -6 15 -10 25 -10 23 0 35 -16 18 -23 -10 -4 -9 -8 2 -16 13 -9 13
-11 -2 -11 -9 0 -29 -5 -43 -12 -24 -11 -25 -13 -8 -19 16 -6 14 -8 -10 -18
-16 -6 -39 -11 -53 -11 -15 0 -24 -6 -24 -15 0 -17 14 -16 115 5 61 13 53 5
-22 -24 -71 -28 -137 -69 -98 -62 11 2 45 14 75 25 53 21 54 21 30 1 -14 -11
-30 -20 -37 -20 -6 0 -15 -5 -19 -12 -5 -7 -2 -9 7 -6 8 3 25 8 39 12 25 7 25
7 -3 -11 -15 -11 -24 -22 -21 -26 3 -3 -14 -15 -38 -27 -25 -11 -62 -39 -84
-61 -23 -24 -30 -37 -18 -31 11 6 27 18 34 27 16 19 90 59 97 52 2 -3 -13 -17
-34 -31 -20 -14 -32 -26 -25 -26 8 0 -11 -23 -40 -50 l-53 -50 53 29 c60 35
68 28 16 -15 -42 -35 -69 -80 -53 -90 6 -3 16 -1 22 5 8 8 7 11 -3 11 -8 0 10
25 40 55 58 59 94 77 44 23 -47 -52 -68 -78 -61 -78 11 0 58 54 127 145 80
107 98 124 109 106 5 -7 12 -13 17 -14 4 -1 8 -31 7 -67 0 -81 10 -52 28 75
10 68 14 83 19 60 5 -25 7 -27 13 -12 4 10 7 30 7 44 0 20 4 24 20 20 15 -4
20 0 20 14 0 10 5 19 11 19 12 0 7 -86 -7 -137 -4 -13 -2 -23 4 -23 6 0 13 8
15 18 3 10 6 5 7 -13 5 -66 18 19 20 130 2 107 3 108 12 50 5 -33 14 -70 20
-82 8 -16 8 -34 -1 -67 -14 -58 -13 -67 4 -35 21 38 34 137 26 191 -4 26 -4
52 0 59 10 16 23 -149 17 -214 -5 -50 -4 -51 8 -22 8 18 14 76 15 145 1 63 4
105 6 93 2 -13 9 -23 15 -23 7 0 9 -17 6 -45 -3 -25 -2 -45 3 -45 5 0 9 -9 9
-21 0 -13 4 -18 13 -13 10 6 10 4 0 -7 -16 -17 -17 -33 -1 -23 6 4 0 -8 -15
-28 -15 -19 -27 -39 -27 -44 0 -24 -155 -148 -172 -138 -5 3 -16 -3 -24 -14
-16 -23 -136 -63 -264 -88 -113 -22 -131 -24 -124 -13 10 16 -9 9 -22 -8 -7
-10 -14 -13 -14 -6 0 6 12 26 27 45 16 19 19 27 9 18 -18 -14 -19 -13 -13 3 3
9 2 17 -4 17 -14 0 -9 100 8 175 8 33 28 87 45 120 34 65 97 147 109 140 4 -3
13 3 20 13 13 15 12 16 -4 3 -15 -12 -17 -12 -12 0 3 8 15 19 28 25 25 11 77
13 77 2z m107 6 c-3 -3 -12 -4 -19 -1 -8 3 -5 6 6 6 11 1 17 -2 13 -5z m-2167
-19 c-7 -9 -15 -13 -17 -11 -7 7 7 26 19 26 6 0 6 -6 -2 -15z m2447 -92 c-2
-21 -4 -4 -4 37 0 41 2 58 4 38 2 -21 2 -55 0 -75z m-2527 36 c-14 -10 -33
-27 -43 -36 -13 -12 -20 -14 -25 -6 -5 8 -18 8 -47 -2 -39 -14 -66 -12 -29 2
10 3 22 11 26 16 3 6 21 11 40 12 41 2 70 14 81 32 5 8 12 12 15 8 4 -4 -4
-15 -18 -26z m-515 -19 c14 -6 6 -8 -25 -7 -34 2 -44 -1 -42 -12 2 -11 0 -12
-10 -4 -7 6 -42 14 -78 17 -66 6 -65 3 9 -25 13 -6 21 -12 19 -15 -3 -2 -16
-1 -29 4 -13 5 -51 12 -84 15 l-60 7 40 -14 c37 -12 38 -13 15 -18 l-25 -5 25
-2 c14 -1 36 -8 49 -15 l24 -14 -22 -7 c-19 -6 -20 -9 -9 -22 11 -14 10 -16
-15 -11 -23 5 -25 3 -15 -10 11 -13 3 -14 -72 -9 l-85 6 52 -17 c59 -19 83
-37 38 -29 -16 3 -57 8 -90 11 l-60 5 50 -14 c28 -7 65 -14 83 -14 22 -1 31
-5 26 -12 -4 -7 -23 -9 -50 -5 -27 3 -46 1 -50 -6 -4 -6 -3 -8 4 -4 6 3 13 2
17 -3 7 -13 -27 -31 -59 -31 -15 0 -30 -8 -36 -19 -5 -11 -24 -23 -42 -27 -18
-4 -27 -9 -20 -12 8 -2 1 -13 -19 -28 -35 -25 -55 -31 -43 -13 3 6 -5 4 -19
-6 -15 -10 -24 -22 -20 -31 3 -8 8 -14 11 -14 3 0 46 26 96 58 50 32 114 67
141 79 124 53 224 93 230 93 4 0 -7 -25 -23 -55 -17 -30 -28 -55 -26 -55 3 0
22 28 43 62 26 40 50 66 71 75 29 12 32 11 26 -5 -13 -32 -71 -124 -105 -163
-18 -22 -31 -42 -28 -45 7 -7 110 122 131 164 10 19 20 31 23 28 3 -3 -9 -31
-27 -63 -27 -50 -28 -54 -6 -28 13 17 33 48 43 70 19 45 30 55 56 55 16 0 16
-2 2 -30 -23 -45 -17 -49 15 -10 17 19 30 28 30 21 0 -11 3 -11 17 0 15 13 15
12 4 -9 -7 -13 -10 -26 -8 -29 3 -2 11 5 17 17 20 38 21 15 1 -31 -31 -69
-146 -168 -231 -198 -108 -38 -143 -42 -347 -39 -112 2 -203 4 -203 6 0 2 15
26 33 55 18 29 46 76 62 105 20 36 31 49 37 40 5 -9 8 -6 8 10 0 30 40 83 90
117 28 19 53 27 89 28 55 2 58 6 9 16 l-33 7 43 27 c23 15 59 31 80 36 46 11
230 12 257 1z m2682 -6 c-3 -3 -12 -4 -19 -1 -8 3 -5 6 6 6 11 1 17 -2 13 -5z
m-40 -10 c-3 -3 -12 -4 -19 -1 -8 3 -5 6 6 6 11 1 17 -2 13 -5z m-2767 -49
c22 -13 23 -14 5 -14 -11 0 -29 6 -39 14 -26 20 0 20 34 0z m-5172 -145 c18
-89 7 -197 -28 -268 -11 -23 -25 -52 -29 -65 -5 -12 -36 -54 -70 -94 -61 -72
-106 -105 -252 -181 -106 -56 -123 -66 -131 -77 -13 -17 -9 20 6 62 7 21 32
69 54 105 23 37 62 113 88 170 26 57 50 105 54 108 4 3 30 52 58 110 28 58 57
114 66 125 l15 20 -1 -20 c-1 -11 6 -45 16 -75 10 -30 20 -61 22 -69 2 -8 7
-12 9 -9 3 2 -4 37 -16 77 -11 41 -18 76 -15 78 4 5 28 -55 50 -127 9 -29 14
-37 15 -22 1 12 -8 48 -20 80 -32 90 -39 113 -28 107 5 -4 9 -12 9 -18 1 -7 7
-25 13 -41 12 -27 13 -25 11 32 -1 34 0 62 2 62 7 0 23 -38 29 -69 3 -17 12
-57 20 -88 8 -32 15 -79 15 -105 0 -26 5 -48 10 -48 21 0 6 102 -45 300 l-6
25 15 -25 c8 -14 15 -19 16 -12 0 7 5 10 10 7 6 -3 10 1 10 9 0 9 -3 16 -7 16
-5 0 -9 15 -10 33 l-1 32 15 -35 c8 -19 22 -69 31 -110z m-334 58 c-5 -8 -2
-9 12 -4 46 19 46 16 0 -14 -67 -44 -53 -47 25 -5 74 40 89 43 89 15 0 -14
-17 -30 -55 -51 -58 -32 -70 -53 -16 -26 17 9 31 11 31 6 0 -6 6 -7 13 -3 6 4
4 -2 -6 -13 -10 -12 -33 -27 -50 -34 -37 -14 -164 -95 -173 -110 -3 -5 18 5
48 24 29 18 61 31 70 29 10 -2 25 1 35 7 14 8 11 10 -17 6 -33 -5 -33 -4 15
19 28 14 53 25 58 25 7 1 -56 -131 -101 -207 -16 -28 -27 -39 -32 -32 -5 8
-10 9 -14 2 -3 -6 -30 -23 -59 -40 -28 -16 -61 -40 -72 -53 -18 -21 -17 -20
15 3 39 30 130 71 130 60 0 -4 -15 -16 -32 -25 -18 -10 -58 -41 -88 -68 -50
-45 -52 -49 -22 -38 17 6 45 26 61 44 16 19 32 31 35 28 3 -4 13 2 22 13 8 10
3 -6 -12 -36 -15 -30 -31 -58 -36 -61 -5 -3 -9 -9 -9 -12 0 -4 -13 -35 -29
-69 -17 -35 -30 -71 -30 -80 0 -9 -4 -20 -10 -23 -6 -4 -10 13 -10 43 0 27 -9
90 -19 141 -23 111 -16 181 29 299 35 91 77 153 124 182 19 11 41 32 50 45 16
24 44 37 30 13z m5787 -21 c-10 -9 -11 -8 -5 6 3 10 9 15 12 12 3 -3 0 -11 -7
-18z m59 -137 c-14 -11 -30 -18 -35 -16 -6 2 -24 -7 -40 -20 -17 -13 -25 -24
-19 -24 6 0 19 9 29 20 10 11 21 17 26 14 5 -2 23 2 40 11 43 23 28 2 -27 -35
-24 -17 -44 -37 -44 -43 0 -7 -12 -20 -27 -29 -16 -9 -39 -29 -53 -44 -21 -22
-17 -21 21 8 26 19 63 52 83 72 20 20 42 36 48 36 7 0 -5 -15 -25 -34 -20 -18
-37 -37 -37 -42 0 -4 10 2 23 13 39 35 51 39 36 12 -7 -13 -12 -28 -11 -33 2
-5 -9 -22 -24 -37 -29 -31 -23 -40 8 -12 30 27 20 -4 -14 -44 -29 -33 -30 -35
-7 -18 15 11 39 41 53 68 15 26 29 47 31 47 1 0 -6 -27 -16 -60 -18 -57 -46
-109 -60 -110 -4 0 -24 -21 -45 -47 l-37 -48 41 40 c23 21 42 35 42 30 1 -6 8
1 16 15 8 14 13 17 10 7 -52 -168 -88 -333 -88 -407 l0 -45 -13 30 c-87 203
-95 226 -104 309 -14 119 12 225 76 308 15 21 36 49 46 63 18 26 79 62 107 64
9 0 6 -7 -10 -19z m250 -10 c6 -11 8 -20 6 -20 -3 0 -10 9 -16 20 -6 11 -8 20
-6 20 3 0 10 -9 16 -20z m-21 -116 c11 -22 25 -74 30 -115 8 -66 9 -58 7 66
-2 125 -1 136 10 100 7 -22 13 -79 13 -127 1 -77 -3 -96 -36 -178 -34 -85 -45
-101 -143 -204 -58 -62 -117 -130 -130 -152 -13 -21 -27 -41 -30 -44 -4 -3
-12 -14 -18 -25 l-11 -20 -2 20 c-1 11 -3 34 -5 50 -6 70 68 409 96 438 4 5
13 -6 19 -24 6 -18 14 -30 16 -27 3 3 -2 22 -11 42 -17 35 -17 38 7 111 13 41
27 75 32 75 4 0 7 -4 7 -8 0 -4 14 -23 30 -42 l30 -35 -16 40 c-23 54 -28 99
-15 122 10 17 10 16 11 -4 0 -12 4 -24 9 -27 5 -4 7 4 4 16 -12 56 50 -70 80
-162 5 -12 6 -12 6 1 1 9 -6 36 -15 60 -8 24 -17 73 -19 109 l-4 65 13 -40 c7
-22 23 -58 35 -81z m30 2 c2 -41 -17 1 -22 49 l-5 50 13 -40 c8 -22 14 -49 14
-59z m-79 29 c0 -5 -5 -3 -10 5 -5 8 -10 20 -10 25 0 6 5 3 10 -5 5 -8 10 -19
10 -25z"/>
<path d="M12594 5858 l-19 -23 23 19 c21 18 27 26 19 26 -2 0 -12 -10 -23 -22z"/>
<path d="M12331 5814 c0 -11 3 -14 6 -6 3 7 2 16 -1 19 -3 4 -6 -2 -5 -13z"/>
<path d="M12570 5740 c-9 -6 -10 -10 -3 -10 6 0 15 5 18 10 8 12 4 12 -15 0z"/>
<path d="M12496 5705 c-11 -8 -15 -15 -10 -15 6 0 19 7 30 15 10 8 15 14 9 14
-5 0 -19 -6 -29 -14z"/>
<path d="M12500 5615 c-14 -8 -20 -14 -15 -14 6 0 21 6 35 14 14 8 21 14 15
14 -5 0 -21 -6 -35 -14z"/>
<path d="M2595 5940 c-4 -17 -5 -34 -2 -36 2 -3 7 10 11 27 8 42 0 50 -9 9z"/>
<path d="M2635 5930 c-9 -15 -25 -70 -19 -70 6 0 35 73 30 77 -2 2 -7 -1 -11
-7z"/>
<path d="M2791 5828 c0 -9 -4 -25 -7 -35 -5 -17 -5 -17 6 0 6 10 9 25 7 35 -4
15 -5 15 -6 0z"/>
<path d="M2651 5699 c-6 -18 -10 -44 -10 -58 1 -21 3 -20 8 9 4 19 11 45 15
58 4 12 5 22 3 22 -3 0 -10 -14 -16 -31z"/>
<path d="M2760 5610 c-6 -11 -8 -20 -6 -20 3 0 10 9 16 20 6 11 8 20 6 20 -3
0 -10 -9 -16 -20z"/>
<path d="M11410 5740 c47 -9 110 -37 110 -48 0 -5 12 -14 28 -21 23 -10 21 -6
-12 23 -41 35 -95 57 -137 55 -17 -1 -14 -3 11 -9z"/>
<path d="M11789 5717 c7 -10 24 -45 37 -80 13 -34 23 -53 23 -42 1 26 -43 120
-60 131 -12 6 -11 5 0 -9z"/>
<path d="M11700 5717 c0 -8 60 -111 60 -104 0 11 -49 107 -55 107 -3 0 -5 -2
-5 -3z"/>
<path d="M11900 5435 c7 -9 15 -13 17 -11 7 7 -7 26 -19 26 -6 0 -6 -6 2 -15z"/>
<path d="M11943 5283 c9 -2 23 -2 30 0 6 3 -1 5 -18 5 -16 0 -22 -2 -12 -5z"/>
<path d="M11873 5273 c9 -2 23 -2 30 0 6 3 -1 5 -18 5 -16 0 -22 -2 -12 -5z"/>
<path d="M11978 5023 c7 -3 16 -2 19 1 4 3 -2 6 -13 5 -11 0 -14 -3 -6 -6z"/>
<path d="M13250 4662 c0 -5 13 -21 29 -36 29 -28 30 -28 24 -5 -8 33 -53 67
-53 41z"/>
<path d="M3060 4716 c0 -2 8 -10 18 -17 15 -13 16 -12 3 4 -13 16 -21 21 -21
13z"/>
<path d="M9778 4003 c11 -16 30 -52 42 -81 13 -29 25 -51 27 -48 8 8 -67 156
-78 156 -6 0 -2 -12 9 -27z"/>
<path d="M9760 3981 c0 -6 4 -13 10 -16 6 -3 7 1 4 9 -7 18 -14 21 -14 7z"/>
<path d="M9394 3946 c11 -9 24 -16 30 -16 12 0 7 5 -24 19 -24 11 -24 11 -6
-3z"/>
<path d="M9553 3873 c9 -2 25 -2 35 0 9 3 1 5 -18 5 -19 0 -27 -2 -17 -5z"/>
<path d="M9521 3846 c2 -2 36 -6 74 -9 42 -3 62 -2 50 3 -19 8 -133 14 -124 6z"/>
<path d="M9686 3792 c-2 -4 14 -9 37 -9 30 -2 37 1 27 7 -18 12 -57 13 -64 2z"/>
<path d="M9818 3703 c7 -3 16 -2 19 1 4 3 -2 6 -13 5 -11 0 -14 -3 -6 -6z"/>
<path d="M9763 3693 c9 -2 23 -2 30 0 6 3 -1 5 -18 5 -16 0 -22 -2 -12 -5z"/>
<path d="M2841 4597 c2 -2 31 -28 64 -57 l60 -54 -55 57 c-30 31 -59 57 -64
57 -5 0 -7 -1 -5 -3z"/>
<path d="M2656 4371 c-3 -4 -26 -14 -51 -21 -42 -12 -70 -30 -46 -30 15 0 121
48 121 54 0 9 -18 7 -24 -3z"/>
<path d="M2857 4331 c-77 -60 -87 -76 -22 -33 59 39 97 73 79 71 -5 0 -31 -18
-57 -38z"/>
<path d="M2969 4303 l-24 -28 30 25 c17 14 32 26 34 28 2 1 0 2 -6 2 -5 0 -20
-12 -34 -27z"/>
<path d="M4151 3996 c2 -2 15 -9 29 -15 24 -11 24 -11 6 3 -16 13 -49 24 -35
12z"/>
<path d="M11640 3580 c-8 -5 -10 -10 -5 -10 6 0 17 5 25 10 8 5 11 10 5 10 -5
0 -17 -5 -25 -10z"/>
<path d="M11455 3540 c-3 -6 1 -7 9 -4 18 7 21 14 7 14 -6 0 -13 -4 -16 -10z"/>
<path d="M4935 3600 c-19 -8 -19 -9 3 -9 12 -1 22 4 22 9 0 6 -1 10 -2 9 -2 0
-12 -4 -23 -9z"/>
<path d="M11321 3519 c-13 -5 -21 -12 -18 -15 3 -3 18 1 34 10 31 17 21 20
-16 5z"/>
<path d="M10555 3340 c-23 -26 -8 -26 25 0 18 14 21 20 9 20 -9 0 -24 -9 -34
-20z"/>
<path d="M10600 3299 c-45 -16 -86 -39 -69 -39 13 0 114 41 123 50 13 13 12
13 -54 -11z"/>
<path d="M10466 3269 c-27 -16 -46 -32 -43 -35 6 -6 82 40 92 56 9 15 3 13
-49 -21z"/>
<path d="M4520 3540 l-25 -8 27 -1 c15 -1 30 4 33 9 7 11 0 11 -35 0z"/>
<path d="M2785 3360 c-3 -5 1 -10 9 -10 8 0 18 5 21 10 3 6 -1 10 -9 10 -8 0
-18 -4 -21 -10z"/>
<path d="M2735 3350 c-13 -6 -15 -9 -5 -9 8 0 22 4 30 9 18 12 2 12 -25 0z"/>
<path d="M2868 3353 c6 -2 18 -2 25 0 6 3 1 5 -13 5 -14 0 -19 -2 -12 -5z"/>
<path d="M5818 3423 c7 -3 16 -2 19 1 4 3 -2 6 -13 5 -11 0 -14 -3 -6 -6z"/>
<path d="M7968 3363 c7 -3 16 -2 19 1 4 3 -2 6 -13 5 -11 0 -14 -3 -6 -6z"/>
<path d="M8230 3320 c8 -5 22 -9 30 -9 10 0 8 3 -5 9 -27 12 -43 12 -25 0z"/>
<path d="M8131 3303 c-19 -3 -44 -11 -55 -20 -20 -14 -20 -15 4 -7 30 10 172
6 220 -6 26 -7 12 -8 -50 -5 -69 3 -77 2 -45 -5 22 -5 69 -9 105 -8 36 1 82
-4 103 -11 21 -7 47 -11 58 -8 10 3 19 1 19 -4 0 -5 23 -9 50 -9 38 0 50 -4
50 -15 0 -8 7 -15 16 -15 8 0 12 5 9 10 -3 6 1 10 10 10 10 0 13 -5 9 -12 -5
-8 -2 -9 10 -5 10 4 25 7 34 7 14 0 13 2 -3 13 -34 22 -180 52 -375 77 -41 5
-88 11 -105 13 -16 3 -45 2 -64 0z"/>
<path d="M8348 3223 c12 -2 30 -2 40 0 9 3 -1 5 -23 4 -22 0 -30 -2 -17 -4z"/>
<path d="M10125 3291 c-23 -22 30 -29 59 -8 16 12 14 13 -18 13 -20 0 -39 -2
-41 -5z"/>
<path d="M9680 3261 c0 -5 9 -7 20 -4 11 3 20 7 20 9 0 2 -9 4 -20 4 -11 0
-20 -4 -20 -9z"/>
<path d="M11917 2947 c-6 -17 -9 -243 -3 -236 3 2 7 49 10 104 3 55 8 110 12
123 7 23 -10 32 -19 9z"/>
<path d="M12081 2874 c0 -11 3 -14 6 -6 3 7 2 16 -1 19 -3 4 -6 -2 -5 -13z"/>
<path d="M11695 2740 c-35 -21 -43 -29 -27 -27 13 1 37 14 55 29 41 35 34 35
-28 -2z"/>
<path d="M11638 2683 c-47 -39 -57 -54 -58 -83 0 -20 2 -22 10 -10 5 8 10 11
10 6 0 -6 6 -1 14 9 8 11 12 23 10 27 -2 3 12 20 32 36 20 16 31 33 26 36 -6
3 -25 -6 -44 -21z"/>
<path d="M11650 2655 c-7 -9 -10 -18 -7 -21 3 -3 10 4 17 15 13 25 8 27 -10 6z"/>
<path d="M11731 2594 c0 -11 3 -14 6 -6 3 7 2 16 -1 19 -3 4 -6 -2 -5 -13z"/>
<path d="M3560 2925 c-8 -9 -8 -15 -2 -15 12 0 26 19 19 26 -2 2 -10 -2 -17
-11z"/>
<path d="M1851 2816 c4 -4 21 -11 39 -16 20 -6 30 -6 24 -1 -10 11 -72 27 -63
17z"/>
<path d="M3579 2723 c-9 -10 -25 -23 -35 -29 -17 -10 -16 -11 8 -7 30 6 52 26
46 43 -2 6 -10 3 -19 -7z"/>
<path d="M3725 2710 c3 -14 10 -52 16 -85 6 -33 13 -62 16 -65 11 -10 -9 115
-23 145 -12 26 -13 26 -9 5z"/>
<path d="M3676 2680 c3 -25 10 -70 14 -100 l7 -55 1 60 c0 33 -6 78 -14 100
l-14 40 6 -45z"/>
<path d="M3632 2660 c0 -14 2 -19 5 -12 2 6 2 18 0 25 -3 6 -5 1 -5 -13z"/>
<path d="M3545 2589 c-4 -6 -5 -12 -2 -15 2 -3 7 2 10 11 7 17 1 20 -8 4z"/>
<path d="M3631 2564 c0 -11 3 -14 6 -6 3 7 2 16 -1 19 -3 4 -6 -2 -5 -13z"/>
<path d="M3592 2484 c-1 -34 -4 -77 -7 -95 -5 -31 -5 -32 5 -10 6 14 9 57 7
95 l-3 71 -2 -61z"/>
<path d="M3641 2514 c0 -11 3 -14 6 -6 3 7 2 16 -1 19 -3 4 -6 -2 -5 -13z"/>
<path d="M2179 2711 c-13 -11 -21 -22 -18 -25 3 -3 16 5 29 19 28 30 22 33
-11 6z"/>
<path d="M2105 2677 c-76 -80 -88 -102 -20 -35 38 37 67 69 64 72 -3 3 -23
-14 -44 -37z"/>
<path d="M2259 2593 l-24 -28 28 24 c25 23 32 31 24 31 -2 0 -14 -12 -28 -27z"/>
<path d="M10797 2474 c-4 -4 -7 -23 -6 -43 l1 -36 9 33 c11 36 9 58 -4 46z"/>
<path d="M10650 2401 c-13 -25 -13 -34 1 -25 8 4 9 -1 4 -17 -4 -13 -4 -21 1
-16 8 8 16 77 9 77 -2 0 -9 -9 -15 -19z"/>
<path d="M10796 2315 c-9 -26 -7 -32 5 -12 6 10 9 21 6 23 -2 3 -7 -2 -11 -11z"/>
<path d="M8022 2390 c-24 -31 -28 -45 -12 -35 10 6 44 65 37 65 -2 0 -13 -13
-25 -30z"/>
<path d="M7759 2293 c-13 -16 -12 -17 4 -4 16 13 21 21 13 21 -2 0 -10 -8 -17
-17z"/>
<path d="M2481 2104 c0 -11 3 -14 6 -6 3 7 2 16 -1 19 -3 4 -6 -2 -5 -13z"/>
<path d="M2373 1975 c1 -57 4 -89 8 -75 9 32 9 106 -1 145 -4 19 -7 -8 -7 -70z"/>
<path d="M2491 2054 c0 -11 3 -14 6 -6 3 7 2 16 -1 19 -3 4 -6 -2 -5 -13z"/>
<path d="M2578 2064 c-5 -4 -8 -21 -7 -38 0 -30 0 -30 10 -7 11 27 8 57 -3 45z"/>
<path d="M2411 1904 c0 -11 3 -14 6 -6 3 7 2 16 -1 19 -3 4 -6 -2 -5 -13z"/>
<path d="M2282 1845 c0 -16 2 -22 5 -12 2 9 2 23 0 30 -3 6 -5 -1 -5 -18z"/>
<path d="M2268 2369 l-33 -31 32 22 c18 11 35 25 38 30 12 19 -5 9 -37 -21z"/>
<path d="M2314 2334 c-18 -14 -18 -15 4 -4 12 6 22 13 22 15 0 8 -5 6 -26 -11z"/>
<path d="M2299 2173 c-13 -17 -13 -17 6 -3 11 8 22 16 24 17 2 2 0 3 -6 3 -6
0 -17 -8 -24 -17z"/>
<path d="M2176 1885 c-9 -13 -16 -35 -16 -47 0 -21 2 -20 16 7 15 29 26 65 20
65 -2 0 -11 -11 -20 -25z"/>
<path d="M8139 2013 c-13 -16 -12 -17 4 -4 16 13 21 21 13 21 -2 0 -10 -8 -17
-17z"/>
<path d="M8100 1860 c-6 -11 -8 -20 -6 -20 3 0 10 9 16 20 6 11 8 20 6 20 -3
0 -10 -9 -16 -20z"/>
<path d="M8341 2124 c0 -11 3 -14 6 -6 3 7 2 16 -1 19 -3 4 -6 -2 -5 -13z"/>
<path d="M8260 2108 c0 -6 6 -19 14 -27 7 -9 24 -51 36 -94 27 -90 44 -113 26
-32 -22 91 -76 202 -76 153z"/>
<path d="M8220 1890 c6 -11 13 -20 16 -20 2 0 0 9 -6 20 -6 11 -13 20 -16 20
-2 0 0 -9 6 -20z"/>
<path d="M8251 1874 c0 -11 3 -14 6 -6 3 7 2 16 -1 19 -3 4 -6 -2 -5 -13z"/>
<path d="M2436 6071 c-104 -260 -123 -344 -106 -474 9 -77 59 -234 67 -211 2
6 -8 37 -23 70 -52 118 -43 315 22 472 59 140 85 214 82 228 -2 6 -20 -31 -42
-85z"/>
<path d="M2429 5645 c17 -33 31 -51 31 -40 0 6 -10 21 -21 35 -13 17 -17 18
-10 5z"/>
<path d="M2447 5469 c12 -12 25 -20 28 -17 3 3 -7 13 -22 23 l-28 17 22 -23z"/>
<path d="M3476 5405 c-3 -9 -6 -26 -5 -38 1 -14 4 -9 9 13 9 37 7 52 -4 25z"/>
<path d="M3522 5390 c0 -19 2 -27 5 -17 2 9 2 25 0 35 -3 9 -5 1 -5 -18z"/>
<path d="M1471 5347 c17 -14 118 -63 113 -55 -4 6 -1 9 7 6 8 -3 14 -10 14
-18 0 -7 11 -20 25 -29 18 -12 22 -13 15 -2 -6 11 -4 13 8 8 26 -10 20 -1 -16
27 -18 14 -44 27 -58 29 -15 3 -40 12 -57 21 -27 14 -64 23 -51 13z m164 -77
c3 -6 -1 -7 -9 -4 -18 7 -21 14 -7 14 6 0 13 -4 16 -10z"/>
<path d="M1850 5285 c30 -30 57 -55 59 -55 3 0 -19 25 -49 55 -30 30 -57 55
-59 55 -3 0 19 -25 49 -55z"/>
<path d="M3469 5278 c-8 -30 -16 -43 -21 -35 -4 7 -8 -4 -8 -25 0 -21 2 -38 4
-38 8 0 48 120 43 132 -3 7 -11 -8 -18 -34z"/>
<path d="M1356 5298 c8 -13 84 -50 95 -46 6 2 -15 15 -45 29 -30 14 -52 21
-50 17z"/>
<path d="M1700 5306 c0 -2 8 -10 18 -17 15 -13 16 -12 3 4 -13 16 -21 21 -21
13z"/>
<path d="M6070 5306 c0 -2 8 -10 18 -17 15 -13 16 -12 3 4 -13 16 -21 21 -21
13z"/>
<path d="M3311 5230 c0 -8 6 -37 13 -65 8 -27 15 -43 15 -35 0 8 -6 38 -13 65
-8 28 -15 43 -15 35z"/>
<path d="M1920 5220 c0 -5 9 -14 20 -20 11 -6 20 -7 20 -3 0 5 -9 14 -20 21
-11 7 -20 8 -20 2z"/>
<path d="M3602 5161 c-22 -16 -43 -35 -47 -41 -5 -9 73 46 94 66 16 15 -13 -1
-47 -25z"/>
<path d="M1625 5140 c-27 -7 -28 -8 -5 -8 14 0 34 3 45 8 25 11 2 11 -40 0z"/>
<path d="M3500 5130 c-8 -5 -12 -12 -9 -15 4 -3 12 1 19 10 14 17 11 19 -10 5z"/>
<path d="M1495 5120 l-20 -9 20 0 c11 0 29 4 40 9 l20 9 -20 0 c-11 0 -29 -4
-40 -9z"/>
<path d="M1987 5065 c-15 -14 -24 -25 -20 -25 11 0 73 38 73 45 0 13 -27 2
-53 -20z"/>
<path d="M1842 5063 c-24 -8 -41 -17 -39 -19 4 -5 97 26 97 32 0 6 -11 4 -58
-13z"/>
<path d="M1949 5063 c-13 -15 -12 -15 9 -4 23 12 28 21 13 21 -5 0 -15 -7 -22
-17z"/>
<path d="M2045 5035 c-25 -12 -26 -14 -5 -9 28 7 60 23 45 23 -5 0 -23 -6 -40
-14z"/>
<path d="M1745 5030 c-13 -6 -15 -9 -5 -9 8 0 22 4 30 9 18 12 2 12 -25 0z"/>
<path d="M1855 5009 c-38 -16 -56 -27 -40 -24 32 7 137 53 120 54 -5 0 -41
-13 -80 -30z"/>
<path d="M3440 5024 c0 -8 5 -12 10 -9 6 3 10 10 10 16 0 5 -4 9 -10 9 -5 0
-10 -7 -10 -16z"/>
<path d="M1858 4984 c-39 -21 -35 -28 5 -8 37 19 44 24 31 24 -5 -1 -21 -8
-36 -16z"/>
<path d="M3556 4912 c-22 -27 -24 -32 -7 -17 20 17 47 55 39 55 -2 0 -16 -17
-32 -38z"/>
<path d="M12139 4933 c-13 -16 -12 -17 4 -4 16 13 21 21 13 21 -2 0 -10 -8
-17 -17z"/>
<path d="M1768 4933 c7 -3 16 -2 19 1 4 3 -2 6 -13 5 -11 0 -14 -3 -6 -6z"/>
<path d="M3529 4913 l-24 -28 28 24 c25 23 32 31 24 31 -2 0 -14 -12 -28 -27z"/>
<path d="M7339 4645 c23 -14 46 -25 50 -25 10 1 -73 50 -84 50 -5 0 10 -11 34
-25z"/>
<path d="M7440 4626 c28 -17 50 -21 35 -7 -6 5 -21 12 -35 15 l-25 7 25 -15z"/>
<path d="M7525 4570 c3 -5 16 -10 28 -9 21 0 21 1 2 9 -28 12 -37 12 -30 0z"/>
<path d="M14738 4533 c7 -3 16 -2 19 1 4 3 -2 6 -13 5 -11 0 -14 -3 -6 -6z"/>
<path d="M4571 4502 c-6 -12 -11 -27 -11 -34 1 -7 8 0 16 15 9 16 13 31 11 34
-3 2 -10 -4 -16 -15z"/>
<path d="M14868 4503 c6 -2 18 -2 25 0 6 3 1 5 -13 5 -14 0 -19 -2 -12 -5z"/>
<path d="M4340 4484 c0 -6 19 -28 42 -49 36 -35 38 -36 21 -10 -25 36 -63 72
-63 59z"/>
<path d="M14728 4483 c7 -3 16 -2 19 1 4 3 -2 6 -13 5 -11 0 -14 -3 -6 -6z"/>
<path d="M14625 4460 c-17 -7 -16 -9 10 -9 17 0 37 4 45 9 12 8 10 10 -10 9
-14 0 -34 -4 -45 -9z"/>
<path d="M14115 4451 c-16 -4 -43 -15 -60 -23 -16 -8 -55 -23 -85 -33 -30 -10
-50 -20 -43 -22 14 -5 100 23 131 43 12 8 48 21 80 28 31 8 46 14 32 14 -14 0
-38 -3 -55 -7z"/>
<path d="M14460 4450 c-20 -6 -21 -8 -5 -8 11 0 29 3 40 8 25 11 -1 11 -35 0z"/>
<path d="M13589 4320 c-19 -16 -31 -30 -27 -30 14 0 98 44 98 52 0 18 -40 6
-71 -22z"/>
<path d="M4706 4274 c-5 -14 -4 -15 9 -4 17 14 19 20 6 20 -5 0 -12 -7 -15
-16z"/>
<path d="M13061 4164 c-22 -19 -29 -21 -24 -9 6 16 4 16 -23 -1 -41 -26 -42
-28 -11 -20 16 4 27 2 27 -4 0 -5 -6 -10 -14 -10 -8 0 -18 -4 -21 -10 -4 -6 5
-10 19 -10 14 0 26 5 26 12 0 6 17 26 38 45 43 39 28 45 -17 7z"/>
<path d="M2897 3510 c29 -52 56 -90 61 -86 2 3 -2 16 -11 28 -23 33 -60 76
-50 58z"/>
<path d="M5490 2950 l-25 -8 28 -1 c15 -1 27 4 27 9 0 6 -1 10 -2 9 -2 -1 -14
-5 -28 -9z"/>
<path d="M5638 2765 c2 -19 6 -35 8 -35 2 0 4 16 4 35 0 19 -4 35 -8 35 -4 0
-6 -16 -4 -35z"/>
<path d="M5571 2744 c0 -11 3 -14 6 -6 3 7 2 16 -1 19 -3 4 -6 -2 -5 -13z"/>
<path d="M5431 2624 c0 -11 3 -14 6 -6 3 7 2 16 -1 19 -3 4 -6 -2 -5 -13z"/>
</g>
</svg>
